<svg xmlns="http://www.w3.org/2000/svg" xmlns:xlink="http://www.w3.org/1999/xlink" viewBox="0 0 457.46 245.37"><defs><style>.cls-1{fill:url(#radial-gradient);}.cls-2{fill:none;}.cls-3{isolation:isolate;}.cls-4{clip-path:url(#clip-path);}.cls-5{fill:url(#radial-gradient-2);}.cls-6{mix-blend-mode:screen;fill:url(#radial-gradient-3);}.cls-11,.cls-7,.cls-8,.cls-9{mix-blend-mode:color-dodge;}.cls-7{fill:url(#radial-gradient-4);}.cls-8{fill:url(#radial-gradient-5);}.cls-9{fill:#c9c9c9;}.cls-10{mask:url(#mask);}.cls-12{fill:url(#linear-gradient);}.cls-13{fill:url(#linear-gradient-2);}.cls-14{fill:url(#linear-gradient-3);}.cls-15{fill:url(#linear-gradient-4);}.cls-16{fill:url(#linear-gradient-5);}.cls-17{fill:url(#linear-gradient-6);}.cls-18{fill:url(#linear-gradient-7);}.cls-19{fill:url(#linear-gradient-8);}.cls-20{fill:url(#linear-gradient-9);}.cls-21{fill:url(#linear-gradient-10);}.cls-22{fill:url(#linear-gradient-11);}.cls-23{fill:url(#linear-gradient-12);}.cls-24{fill:url(#linear-gradient-13);}.cls-25{fill:url(#linear-gradient-14);}.cls-26{fill:url(#linear-gradient-15);}.cls-27{fill:url(#linear-gradient-16);}.cls-28{fill:url(#linear-gradient-17);}.cls-29{fill:url(#linear-gradient-18);}.cls-30{fill:url(#linear-gradient-19);}.cls-31{fill:url(#linear-gradient-20);}.cls-32{fill:url(#linear-gradient-21);}.cls-33{fill:url(#linear-gradient-22);}.cls-34{fill:url(#linear-gradient-23);}.cls-35{fill:url(#linear-gradient-24);}.cls-36{fill:url(#linear-gradient-25);}.cls-37{fill:url(#linear-gradient-26);}.cls-38{fill:url(#linear-gradient-27);}.cls-39{fill:url(#linear-gradient-28);}.cls-40{fill:url(#linear-gradient-29);}.cls-41{fill:url(#linear-gradient-30);}.cls-42{fill:url(#linear-gradient-31);}.cls-43{fill:url(#linear-gradient-32);}.cls-44{fill:url(#linear-gradient-33);}.cls-45{fill:url(#linear-gradient-34);}.cls-46{fill:url(#linear-gradient-35);}.cls-47{fill:url(#linear-gradient-36);}.cls-48{fill:url(#linear-gradient-37);}.cls-49{fill:url(#linear-gradient-38);}.cls-50{fill:url(#linear-gradient-39);}</style><radialGradient id="radial-gradient" cx="199.64" cy="130.09" r="119.22" gradientUnits="userSpaceOnUse"><stop offset="0.35"/><stop offset="0.42" stop-color="#141414"/><stop offset="0.56" stop-color="#464646"/><stop offset="0.76" stop-color="#989898"/><stop offset="1" stop-color="#fff"/></radialGradient><clipPath id="clip-path" transform="translate(33.37 2.37)"><rect id="Rectangle_339-2" data-name="Rectangle 339-2" class="cls-2" x="1" y="1" width="396" height="242" rx="18"/></clipPath><radialGradient id="radial-gradient-2" cx="232.37" cy="124.37" r="164.08" gradientUnits="userSpaceOnUse"><stop offset="0.11" stop-color="#0d3e64"/><stop offset="0.21" stop-color="#0b365f"/><stop offset="0.73" stop-color="#041048"/><stop offset="1" stop-color="#01013f"/></radialGradient><radialGradient id="radial-gradient-3" cx="-1032.91" cy="965.85" r="30.5" gradientTransform="matrix(5.78, -0.08, 0.04, 2.91, 6073.1, -2813.15)" gradientUnits="userSpaceOnUse"><stop offset="0" stop-color="#610007"/><stop offset="0.09" stop-color="#4a0005"/><stop offset="0.22" stop-color="#2f0003"/><stop offset="0.36" stop-color="#1a0002"/><stop offset="0.52" stop-color="#0b0001"/><stop offset="0.71" stop-color="#030000"/><stop offset="1"/></radialGradient><radialGradient id="radial-gradient-4" cx="-1032.91" cy="965.85" r="15.58" xlink:href="#radial-gradient-3"/><radialGradient id="radial-gradient-5" cx="-1010.83" cy="974.39" r="15.58" gradientTransform="matrix(5.78, -0.08, 0.04, 2.91, 6073.1, -2813.15)" gradientUnits="userSpaceOnUse"><stop offset="0" stop-color="#004434"/><stop offset="0.12" stop-color="#002f24"/><stop offset="0.28" stop-color="#001a14"/><stop offset="0.46" stop-color="#000b09"/><stop offset="0.67" stop-color="#000302"/><stop offset="1"/></radialGradient><mask id="mask" x="-13.28" y="47.83" width="473.17" height="168.03" maskUnits="userSpaceOnUse"><g transform="translate(33.37 2.37)"><rect class="cls-1" x="-46.65" y="45.46" width="473.17" height="168.03"/></g></mask><linearGradient id="linear-gradient" x1="-20.59" y1="54.44" x2="47.32" y2="54.44" gradientUnits="userSpaceOnUse"><stop offset="0"/><stop offset="0.11" stop-color="#141414"/><stop offset="0.33" stop-color="#464646"/><stop offset="0.64" stop-color="#989898"/><stop offset="1" stop-color="#fff"/></linearGradient><linearGradient id="linear-gradient-2" x1="24.99" y1="59.43" x2="125.96" y2="59.43" xlink:href="#linear-gradient"/><linearGradient id="linear-gradient-3" x1="68.26" y1="68.23" x2="225.77" y2="68.23" xlink:href="#linear-gradient"/><linearGradient id="linear-gradient-4" x1="158.27" y1="60.88" x2="303.66" y2="60.88" xlink:href="#linear-gradient"/><linearGradient id="linear-gradient-5" x1="192.31" y1="71.91" x2="389.62" y2="71.91" xlink:href="#linear-gradient"/><linearGradient id="linear-gradient-6" x1="-15.97" y1="182.27" x2="48.19" y2="182.27" xlink:href="#linear-gradient"/><linearGradient id="linear-gradient-7" x1="40.16" y1="179.93" x2="124.8" y2="179.93" xlink:href="#linear-gradient"/><linearGradient id="linear-gradient-8" x1="113.84" y1="187.52" x2="275.39" y2="187.52" xlink:href="#linear-gradient"/><linearGradient id="linear-gradient-9" x1="259.23" y1="190.26" x2="378.66" y2="190.26" xlink:href="#linear-gradient"/><linearGradient id="linear-gradient-10" x1="-14.82" y1="146.32" x2="128.96" y2="146.32" xlink:href="#linear-gradient"/><linearGradient id="linear-gradient-11" x1="46.51" y1="171.58" x2="377.51" y2="171.58" xlink:href="#linear-gradient"/><linearGradient id="linear-gradient-12" x1="54.59" y1="170.44" x2="117.56" y2="170.44" xlink:href="#linear-gradient"/><linearGradient id="linear-gradient-13" x1="-15.83" y1="78.62" x2="271.32" y2="78.62" xlink:href="#linear-gradient"/><linearGradient id="linear-gradient-14" x1="49.61" y1="91.04" x2="149.32" y2="91.04" xlink:href="#linear-gradient"/><linearGradient id="linear-gradient-15" x1="1.77" y1="83.58" x2="130.69" y2="83.58" xlink:href="#linear-gradient"/><linearGradient id="linear-gradient-16" x1="33.81" y1="103.59" x2="156.11" y2="103.59" xlink:href="#linear-gradient"/><linearGradient id="linear-gradient-17" x1="-11.65" y1="88.66" x2="315.05" y2="88.66" xlink:href="#linear-gradient"/><linearGradient id="linear-gradient-18" x1="116.03" y1="147.78" x2="280" y2="147.78" xlink:href="#linear-gradient"/><linearGradient id="linear-gradient-19" x1="55.42" y1="126.92" x2="118.19" y2="126.92" xlink:href="#linear-gradient"/><linearGradient id="linear-gradient-20" x1="112.57" y1="137.14" x2="224.15" y2="137.14" xlink:href="#linear-gradient"/><linearGradient id="linear-gradient-21" x1="-7.32" y1="115.18" x2="99.13" y2="115.18" xlink:href="#linear-gradient"/><linearGradient id="linear-gradient-22" x1="-14.68" y1="148.45" x2="56.04" y2="148.45" xlink:href="#linear-gradient"/><linearGradient id="linear-gradient-23" x1="149.35" y1="102.58" x2="277.7" y2="102.58" xlink:href="#linear-gradient"/><linearGradient id="linear-gradient-24" x1="144.32" y1="121.76" x2="260.53" y2="121.76" xlink:href="#linear-gradient"/><linearGradient id="linear-gradient-25" x1="136.37" y1="136.15" x2="213.33" y2="136.15" xlink:href="#linear-gradient"/><linearGradient id="linear-gradient-26" x1="162.5" y1="100.96" x2="328.03" y2="100.96" xlink:href="#linear-gradient"/><linearGradient id="linear-gradient-27" x1="177.45" y1="172.88" x2="356.16" y2="172.88" xlink:href="#linear-gradient"/><linearGradient id="linear-gradient-28" x1="-7.97" y1="114.91" x2="38.3" y2="114.91" xlink:href="#linear-gradient"/><linearGradient id="linear-gradient-29" x1="-15.54" y1="140.93" x2="71" y2="140.93" xlink:href="#linear-gradient"/><linearGradient id="linear-gradient-30" x1="-15.11" y1="125.95" x2="27.92" y2="125.95" xlink:href="#linear-gradient"/><linearGradient id="linear-gradient-31" x1="-9.92" y1="133.14" x2="49.8" y2="133.14" xlink:href="#linear-gradient"/><linearGradient id="linear-gradient-32" x1="209.88" y1="160.29" x2="282.6" y2="160.29" xlink:href="#linear-gradient"/><linearGradient id="linear-gradient-33" x1="215.55" y1="146.75" x2="396.83" y2="146.75" xlink:href="#linear-gradient"/><linearGradient id="linear-gradient-34" x1="284.35" y1="100.6" x2="410.68" y2="100.6" xlink:href="#linear-gradient"/><linearGradient id="linear-gradient-35" x1="237.16" y1="159.89" x2="413.27" y2="159.89" xlink:href="#linear-gradient"/><linearGradient id="linear-gradient-36" x1="234.13" y1="114.54" x2="384.28" y2="114.54" xlink:href="#linear-gradient"/><linearGradient id="linear-gradient-37" x1="293.33" y1="130.53" x2="424.09" y2="130.53" xlink:href="#linear-gradient"/><linearGradient id="linear-gradient-38" x1="312.26" y1="125.62" x2="382.34" y2="125.62" xlink:href="#linear-gradient"/><linearGradient id="linear-gradient-39" x1="316.32" y1="132.47" x2="345.31" y2="132.47" xlink:href="#linear-gradient"/></defs><g class="cls-3"><g id="Layer_1" data-name="Layer 1"><g class="cls-4"><rect id="Rectangle_339-2-2" data-name="Rectangle 339-2" class="cls-5" x="34.37" y="3.37" width="396" height="242" rx="18"/><path class="cls-6" d="M319.22,84c.71,49.06-77.64,90-175,91.4S-32.66,138.13-33.37,89.07s77.65-90,175-91.4S318.51,34.89,319.22,84Z" transform="translate(33.37 2.37)"/><path class="cls-7" d="M233,85.21c.36,25.06-39.66,46-89.39,46.68s-90.35-19-90.71-44.07,39.66-46,89.39-46.69S232.61,60.15,233,85.21Z" transform="translate(33.37 2.37)"/><path class="cls-8" d="M361,108.26c.37,25.06-39.66,46-89.39,46.68s-90.34-19-90.7-44.07,39.66-46,89.39-46.68S360.61,83.2,361,108.26Z" transform="translate(33.37 2.37)"/><path class="cls-9" d="M199,62.73A59.28,59.28,0,1,1,139.7,122,59.28,59.28,0,0,1,199,62.73m0-.57A59.85,59.85,0,1,0,258.82,122,59.92,59.92,0,0,0,199,62.16Z" transform="translate(33.37 2.37)"/><g class="cls-10"><g class="cls-11"><path class="cls-12" d="M33.8,61,45.26,49.5a1.39,1.39,0,1,0-.52-.52L33.49,60.22H-17.88a1.38,1.38,0,0,0-1.32-1,1.39,1.39,0,0,0-1.39,1.39A1.38,1.38,0,0,0-19.2,62a1.37,1.37,0,0,0,1.32-1Z" transform="translate(33.37 2.37)"/><path class="cls-13" d="M26.38,66.13a1.39,1.39,0,1,0,1.32,1.75H47.64L63.8,51.73h59.44a1.39,1.39,0,1,0,0-.74H63.49L47.34,67.14H27.7A1.37,1.37,0,0,0,26.38,66.13Z" transform="translate(33.37 2.37)"/><path class="cls-14" d="M69.65,61.51a1.39,1.39,0,1,0,0,2.77,1.37,1.37,0,0,0,1.32-1h68.68l10.68,10.68h72.73a1.38,1.38,0,1,0,0-.74H150.63L140,62.53H71A1.37,1.37,0,0,0,69.65,61.51Z" transform="translate(33.37 2.37)"/><path class="cls-15" d="M159.65,70.05A1.37,1.37,0,0,0,161,69h73.6l15.57-15.57h50.79a1.39,1.39,0,1,0,0-.74H249.85L234.27,68.3H161a1.38,1.38,0,1,0-1.33,1.75Z" transform="translate(33.37 2.37)"/><path class="cls-16" d="M245.23,79.84H195a1.39,1.39,0,1,0,0,.73h50.52L263.14,63h54.79L329,74.08h57.88a1.39,1.39,0,1,0,0-.73H329.34L318.23,62.24h-55.4Z" transform="translate(33.37 2.37)"/><path class="cls-17" d="M46.12,189.09,30.91,173.88H-13.26a1.37,1.37,0,0,0-1.33-1A1.38,1.38,0,0,0-16,174.25a1.38,1.38,0,0,0,1.38,1.38,1.38,1.38,0,0,0,1.33-1H30.61l15,15a1.39,1.39,0,1,0,.52-.52Z" transform="translate(33.37 2.37)"/><path class="cls-18" d="M123.42,186a1.39,1.39,0,1,0-1.33-1.76h-71l-8.36-8.35a1.38,1.38,0,1,0-2.18.3,1.41,1.41,0,0,0,1.66.22L50.8,185h71.29A1.39,1.39,0,0,0,123.42,186Z" transform="translate(33.37 2.37)"/><path class="cls-19" d="M274,196.26a1.39,1.39,0,1,0-1.33-1.76H199.53L183.8,178.78H149.17l-12.4,12.41H116.55a1.39,1.39,0,1,0,0,.73h20.52l12.41-12.4h34l15.72,15.72h73.45A1.39,1.39,0,0,0,274,196.26Z" transform="translate(33.37 2.37)"/><path class="cls-20" d="M377.28,178.92a1.37,1.37,0,0,0-1.33,1H316.49l-19.91,19.9H261.94a1.38,1.38,0,1,0,0,.74h34.94l19.91-19.91H376a1.38,1.38,0,1,0,1.33-1.75Z" transform="translate(33.37 2.37)"/><path class="cls-21" d="M-13.43,167.55a1.37,1.37,0,0,0,1.32-1H36.1l23.08-23.08h51.93l15.79-15.79a1.38,1.38,0,1,0-.3-2.17,1.38,1.38,0,0,0-.23,1.65L110.8,142.72H58.88L35.8,165.8H-12.11a1.37,1.37,0,0,0-1.32-1,1.38,1.38,0,0,0-1.39,1.38A1.38,1.38,0,0,0-13.43,167.55Z" transform="translate(33.37 2.37)"/><path class="cls-22" d="M184.08,170.58l11.54,11.54h88.27l11.4,11.4,17.46-17.46h62a1.38,1.38,0,1,0,0-.74H312.45l-17.16,17.16-11.1-11.1H195.92l-11.54-11.54H130.72l-20.19-20.19H61.19L48.57,162.26a1.39,1.39,0,1,0,.52.52l12.4-12.4h48.74l20.19,20.2Z" transform="translate(33.37 2.37)"/><path class="cls-23" d="M115.2,174.39a1.39,1.39,0,1,0,.3-2.18l-6.12-6.12H62.63l-6,6a1.39,1.39,0,1,0,.52.52l5.76-5.76h46.14l5.91,5.9A1.38,1.38,0,0,0,115.2,174.39Z" transform="translate(33.37 2.37)"/><path class="cls-24" d="M159.14,88.92,137.79,67.58H67.68l-7.5,7.5h-73.3a1.37,1.37,0,0,0-1.32-1,1.38,1.38,0,0,0-1.39,1.38,1.39,1.39,0,0,0,1.39,1.39,1.37,1.37,0,0,0,1.32-1h73.6l7.5-7.5h69.51l21.34,21.35H252.6L269.26,73a1.38,1.38,0,1,0-.3-2.18,1.38,1.38,0,0,0-.22,1.66L252.3,88.92Z" transform="translate(33.37 2.37)"/><path class="cls-25" d="M52,91a1.39,1.39,0,1,0-.3,2.18l4.68,4.68H130L141.79,86h4.82a1.38,1.38,0,1,0,0-.74h-5.12L129.7,97.07h-73l-4.47-4.46A1.38,1.38,0,0,0,52,91Z" transform="translate(33.37 2.37)"/><path class="cls-26" d="M59.9,87.34l-5.19-5.19H4.48a1.39,1.39,0,1,0,0,.73H54.4l5.2,5.19h62.61l6.41-6.41a1.38,1.38,0,1,0-.52-.52l-6.19,6.2Z" transform="translate(33.37 2.37)"/><path class="cls-27" d="M36.18,93.33a1.39,1.39,0,1,0-.3,2.18l18.74,18.74h84l15.39-15.39a1.38,1.38,0,1,0-.3-2.17,1.38,1.38,0,0,0-.23,1.65l-15.17,15.18H54.93L36.4,95A1.38,1.38,0,0,0,36.18,93.33Z" transform="translate(33.37 2.37)"/><path class="cls-28" d="M313.66,69.34a1.37,1.37,0,0,0-1.32,1H282.77L259.51,93.61H149.82l-13.63,13.63H57.74L40.43,89.93H-8.93a1.39,1.39,0,0,0-1.33-1,1.38,1.38,0,0,0-1.39,1.38,1.39,1.39,0,0,0,1.39,1.39,1.39,1.39,0,0,0,1.33-1H40.12L57.43,108h79.06l13.63-13.63h109.7l23.25-23.26h29.27a1.37,1.37,0,0,0,1.32,1,1.39,1.39,0,1,0,0-2.77Z" transform="translate(33.37 2.37)"/><path class="cls-29" d="M118.39,144.82a1.38,1.38,0,1,0-.3,2.18l14.2,14.2h68.24l25.1-25.09h51.66a1.39,1.39,0,1,0,0-.74h-52l-25.1,25.1H132.6l-14-14A1.38,1.38,0,0,0,118.39,144.82Z" transform="translate(33.37 2.37)"/><path class="cls-30" d="M58.14,119.79a1.38,1.38,0,1,0,0,.74h58.27l-12,11.95a1.39,1.39,0,1,0,.52.52l13.21-13.21Z" transform="translate(33.37 2.37)"/><path class="cls-31" d="M146.27,121.61l-20.51,20.51,11.29,11.29h60.89l24.15-24.15a1.39,1.39,0,1,0-.52-.52l-23.94,23.94H137.36L126.8,142.12l21.25-21.25h-22.9L114.63,131.4a1.38,1.38,0,1,0,.52.52l10.31-10.31Z" transform="translate(33.37 2.37)"/><path class="cls-32" d="M96.41,129.62a1.39,1.39,0,1,0,0-.74H57.74L29.61,100.75H-4.61a1.38,1.38,0,0,0-1.33-1,1.38,1.38,0,0,0-1.38,1.38,1.38,1.38,0,0,0,1.38,1.39,1.39,1.39,0,0,0,1.33-1H29.31l28.12,28.13Z" transform="translate(33.37 2.37)"/><path class="cls-33" d="M-12,156.57a1.39,1.39,0,0,0-1.33-1,1.38,1.38,0,0,0-1.39,1.38,1.39,1.39,0,0,0,1.39,1.39,1.4,1.4,0,0,0,1.33-1H37.83L54,141.16a1.39,1.39,0,1,0-.52-.52L37.53,156.57Z" transform="translate(33.37 2.37)"/><path class="cls-34" d="M160.64,102.27l-9.23,9.22a1.39,1.39,0,1,0,.52.52l9-9H266.31l9.33-9.33a1.39,1.39,0,1,0-.52-.52L266,102.27Z" transform="translate(33.37 2.37)"/><path class="cls-35" d="M259.14,119.49a1.39,1.39,0,1,0-1.33-1.75H211.15L198.5,130.39H146.1L161.51,115a1.39,1.39,0,1,0-.52-.52l-16.67,16.67H198.8l12.66-12.66h46.35A1.39,1.39,0,0,0,259.14,119.49Z" transform="translate(33.37 2.37)"/><path class="cls-36" d="M142.55,144l-3.6-3.6a1.37,1.37,0,0,0-.22-1.65,1.38,1.38,0,1,0-.3,2.18l3.82,3.81h54.39l14.63-14.63a1.39,1.39,0,1,0-.52-.52L196.33,144Z" transform="translate(33.37 2.37)"/><path class="cls-37" d="M305.3,81.21h20a1.39,1.39,0,1,0,0-.74H305l-30.78,30.78h-70l-10.49,10.49H164.27l9.79-9.79a1.38,1.38,0,1,0-.52-.52l-11,11H194l10.5-10.5h70Z" transform="translate(33.37 2.37)"/><path class="cls-38" d="M354.77,169a1.39,1.39,0,0,0-1.33,1H311.87l-9.09,9.08h-14l-6.06-6H198.37L192.31,167H180.16a1.39,1.39,0,1,0,0,.73H192l6.06,6.06h84.37l6.06,6.06h14.59l9.08-9.09h41.27a1.38,1.38,0,1,0,1.33-1.75Z" transform="translate(33.37 2.37)"/><path class="cls-39" d="M35.94,122.11a1.39,1.39,0,1,0,.3-2.18l-11.6-11.6H-5.26a1.37,1.37,0,0,0-1.33-1A1.38,1.38,0,0,0-8,108.69a1.38,1.38,0,0,0,1.38,1.39,1.37,1.37,0,0,0,1.33-1H24.33l11.39,11.39A1.38,1.38,0,0,0,35.94,122.11Z" transform="translate(33.37 2.37)"/><path class="cls-40" d="M-14.16,147.94a1.37,1.37,0,0,0,1.33-1H30L41.3,135.67h27a1.39,1.39,0,1,0,0-.73H41L29.74,146.19H-12.83a1.37,1.37,0,0,0-1.33-1,1.38,1.38,0,0,0-1.38,1.39A1.38,1.38,0,0,0-14.16,147.94Z" transform="translate(33.37 2.37)"/><path class="cls-41" d="M-13.72,128.73a1.38,1.38,0,0,0-1.39,1.38,1.39,1.39,0,0,0,1.39,1.39,1.37,1.37,0,0,0,1.32-1H18.36L25.85,123a1.38,1.38,0,1,0-.29-2.18,1.4,1.4,0,0,0-.23,1.66l-7.27,7.27H-12.4A1.37,1.37,0,0,0-13.72,128.73Z" transform="translate(33.37 2.37)"/><path class="cls-42" d="M-8.53,140.15a1.39,1.39,0,0,0,1.33-1H22.26l11.25-11.26H47.08a1.39,1.39,0,1,0,0-.73H33.2L22,138.4H-7.2a1.39,1.39,0,0,0-1.33-1,1.39,1.39,0,0,0-1.39,1.39A1.38,1.38,0,0,0-8.53,140.15Z" transform="translate(33.37 2.37)"/><path class="cls-43" d="M279.88,153.2a1.38,1.38,0,1,0,0-.74H225.54l-15.66,15.67h28.46a1.39,1.39,0,1,0,0-.74H211.66l14.19-14.19Z" transform="translate(33.37 2.37)"/><path class="cls-44" d="M305.16,156.23h44.23l17.2-17.2h27.53a1.39,1.39,0,1,0,0-.74H366.28l-17.2,17.2H305.47L291.4,141.43H229.22L217.62,153a1.39,1.39,0,1,0,.52.52l11.38-11.39H291.1Z" transform="translate(33.37 2.37)"/><path class="cls-45" d="M353.6,102.59,339.87,88.85H307.32l-20.9,20.91a1.39,1.39,0,1,0,.52.52l20.69-20.69h31.93l13.74,13.74H408a1.38,1.38,0,1,0,0-.74Z" transform="translate(33.37 2.37)"/><path class="cls-46" d="M411.89,153.39a1.37,1.37,0,0,0-1.33,1H373.31l-11.25,11.25H293.57l-4.76-4.76H239.87a1.36,1.36,0,1,0,0,.74H288.5l4.76,4.76h69.11l11.25-11.25h36.94a1.38,1.38,0,1,0,1.33-1.76Z" transform="translate(33.37 2.37)"/><path class="cls-47" d="M384.28,112.37a1.38,1.38,0,0,0-2.71-.37H345.06l-9.52-9.52H307.81a1.39,1.39,0,1,0,0,.74H332a1.09,1.09,0,0,0-.15.35H308.19l-22.28,22.28H236.85a1.4,1.4,0,0,0-1.33-1,1.39,1.39,0,1,0,1.33,1.76h49.36L308.5,104.3h23.31a1.38,1.38,0,0,0,2.71-.37,1.43,1.43,0,0,0-.2-.71h.91l9.52,9.52h36.82a1.38,1.38,0,0,0,2.71-.37Z" transform="translate(33.37 2.37)"/><path class="cls-48" d="M422.71,125.05a1.37,1.37,0,0,0-1.33,1H362.71l-20.55,20.55H308.28l-13.91-13.91,16.42-16.43a1.39,1.39,0,1,0-.52-.52l-16.94,17L308,147.36h34.49L363,126.8h58.36a1.38,1.38,0,1,0,1.33-1.75Z" transform="translate(33.37 2.37)"/><path class="cls-49" d="M381,121.54a1.38,1.38,0,1,0-1.33-1.75h-55.2l-10.09,10.09a1.39,1.39,0,1,0,.52.52l9.87-9.87h54.9A1.39,1.39,0,0,0,381,121.54Z" transform="translate(33.37 2.37)"/><path class="cls-50" d="M336.84,138.7l6.41-6.41a1.39,1.39,0,1,0-.52-.52l-6.2,6.2H318.1l9.14-9.14a1.39,1.39,0,1,0-.52-.52l-10.4,10.39Z" transform="translate(33.37 2.37)"/></g></g></g></g></g></svg>