<svg xmlns="http://www.w3.org/2000/svg" width="34.511" height="28.343" viewBox="0 0 34.511 28.343">
  <g id="Groupe_110518" data-name="Groupe 110518" transform="translate(-36.959 -650.966)">
    <g id="layer1" transform="translate(34.963 -373.396)">
      <path id="rect7916-2" d="M5.082,4a.64.64,0,0,0-.616.616V8.467l-2.234,2.08a.616.616,0,0,0-.193.424L2,11.856a.616.616,0,0,0,0,.154v.27a.616.616,0,0,0,0,.154v.192a2.473,2.473,0,0,0,2.465,2.465V26.8c0,.021,0,.056,0,.077a.617.617,0,0,0,.039.116c.006.02-.008.02,0,.038a.675.675,0,0,0,.116.154.5.5,0,0,0,.039.039.5.5,0,0,0,.077.077.77.77,0,0,0,.193.077.575.575,0,0,0,.154.038h9.242v3.7h-3.7v1.232H27.879V31.111h-3.7v-3.7h9.242a.364.364,0,0,0,.116,0,1.164,1.164,0,0,0,.115-.038c.019-.012.059-.029.077-.039.036-.02.046-.05.077-.077s.09-.045.116-.077c.012-.016-.01-.021,0-.038s.029-.059.038-.077.031-.019.039-.039-.006-.057,0-.077.035-.019.038-.038,0-.057,0-.077,0-.024,0-.039V15.091a2.473,2.473,0,0,0,2.465-2.465v-.27a.616.616,0,0,0,0-.077v-.385a.616.616,0,0,0,0-.077l-.038-.847a.616.616,0,0,0-.193-.424l-2.234-2.08V4.616A.64.64,0,0,0,33.425,4H5.082ZM5.7,5.232H32.809v2.08l-.732-.693a.616.616,0,0,0-.424-.154H6.853a.616.616,0,0,0-.193,0,.616.616,0,0,0-.231.154L5.7,7.312V5.232ZM7.084,7.7H31.422l1.964,1.81L5.043,9.584ZM34.7,10.739l.539.5.038.578q0,.019,0,.038v.462a.616.616,0,0,0,0,.077v.231a1.232,1.232,0,0,1-2.465,0,.616.616,0,0,0-1.232,0,1.232,1.232,0,1,1-2.465,0,.616.616,0,1,0-1.232,0,1.232,1.232,0,1,1-2.465,0,.616.616,0,0,0-1.232,0,1.232,1.232,0,0,1-2.465,0,.616.616,0,1,0-1.232,0,1.232,1.232,0,0,1-2.465,0,.616.616,0,0,0-1.232,0,1.232,1.232,0,1,1-2.465,0,.616.616,0,1,0-1.232,0,1.232,1.232,0,0,1-2.465,0,.616.616,0,1,0-1.232,0,1.232,1.232,0,1,1-2.465,0,.616.616,0,0,0-1.232,0,1.232,1.232,0,1,1-2.465,0V12.4a.616.616,0,0,0,0-.077v-.424l.039-.655.462-.424ZM6.314,14.09a2.347,2.347,0,0,0,1.848,1,2.347,2.347,0,0,0,1.848-1,2.347,2.347,0,0,0,1.848,1,2.347,2.347,0,0,0,1.848-1,2.207,2.207,0,0,0,3.7,0,2.207,2.207,0,0,0,3.7,0,2.207,2.207,0,0,0,3.7,0,2.207,2.207,0,0,0,3.7,0,2.207,2.207,0,0,0,3.7,0,3.167,3.167,0,0,0,.616.578v7.817H5.7V14.667A3.169,3.169,0,0,0,6.314,14.09ZM5.7,23.717H32.809v2.465H5.7Zm9.858,3.7H22.95v3.7H15.556Z" transform="translate(0 1020.362)"/>
    </g>
  </g>
</svg>
