<svg xmlns="http://www.w3.org/2000/svg" width="34.428" height="28.058" viewBox="0 0 34.428 28.058">
  <g id="Groupe_207" data-name="Groupe 207" transform="translate(0 0)">
    <path id="Tracé_421" data-name="Tracé 421" d="M-4657.148-3775.27a17.1,17.1,0,0,1,1.815-7.7,17.242,17.242,0,0,1,2.785-4.014,17.167,17.167,0,0,1,12.613-5.5,17.165,17.165,0,0,1,12.622,5.511,17.074,17.074,0,0,1,2.779,4c.016.028.028.06.041.087a16.638,16.638,0,0,1,.717,1.663c.016.046.035.094.05.141.043.121.084.242.125.364.052.156.1.312.149.471.044.137.081.277.122.417.012.047.025.094.037.141.028.109.057.219.085.331s.049.212.071.318.043.194.063.287c.084.412.155.826.209,1.248.009.075.019.153.028.228a16.97,16.97,0,0,1,.115,2c0,.068,0,.137-.006.206h-3.378c0-.069.006-.138.006-.206,0-.271-.01-.543-.025-.814-.006-.116-.013-.231-.024-.346-.013-.169-.031-.334-.05-.5-.044-.384-.106-.758-.184-1.129-.025-.131-.053-.259-.084-.387-.007-.031-.016-.059-.021-.09a13.776,13.776,0,0,0-2.371-5.022,13.819,13.819,0,0,0-11.076-5.542,13.809,13.809,0,0,0-11.07,5.537,13.786,13.786,0,0,0-2.376,5.028,13.74,13.74,0,0,0-.39,3.269c0,.068.007.137.007.206h-3.379C-4657.143-3775.132-4657.148-3775.2-4657.148-3775.27Z" transform="translate(4657.148 3792.483)" fill="#262627"/>
    <path id="Tracé_422" data-name="Tracé 422" d="M-619.853-2295.8h4.685l4.879,11.062,3.852-8.511,1.548-3.413a17.128,17.128,0,0,1,2.779,4.007l-1.955,4.429-6.223,14.111Z" transform="translate(634.725 2302.173)" fill="#262627"/>
    <path id="Tracé_423" data-name="Tracé 423" d="M-4164.56-3080.732a17.161,17.161,0,0,1,2.785-4.014l1.543,3.416,3.849,8.515,6.567-14.838h4.687l-11.253,25.461-6.223-14.111Z" transform="translate(4166.374 3090.249)" fill="#262627"/>
    <path id="Tracé_424" data-name="Tracé 424" d="M49.486-2051.5l-4.879-11.062-2.246,5.4,7.125,16.281Z" transform="translate(-25.05 2068.933)" fill="#262627" style="mix-blend-mode: multiply;isolation: isolate"/>
    <path id="Tracé_425" data-name="Tracé 425" d="M3671.369-1180.944l0,0,1.975-4.432a17.51,17.51,0,0,1,.717,1.663c.015.047.034.094.05.14.043.121.083.243.124.365.053.156.1.312.15.471.043.137.081.278.122.418.012.047.025.094.037.14.028.109.056.218.084.331s.05.212.072.318.044.194.062.287c.084.412.156.827.209,1.248.009.075.018.153.028.228l-1.7,2.208h-1.566c0-.068,0-.137,0-.206,0-.271-.01-.542-.025-.814-.006-.115-.012-.231-.024-.346-.013-.169-.031-.334-.05-.5-.047-.381-.11-.758-.185-1.129C3671.428-1180.688,3671.4-1180.816,3671.369-1180.944Z" transform="translate(-3640.691 1194.982)" fill="#262627" style="mix-blend-mode: multiply;isolation: isolate"/>
    <path id="Tracé_426" data-name="Tracé 426" d="M-3404.352-3066.364l-.505-3.792a17.293,17.293,0,0,0-3.423,2.842l1.543,3.415A13.888,13.888,0,0,1-3404.352-3066.364Z" transform="translate(3412.881 3072.816)" fill="#262627" style="mix-blend-mode: multiply;isolation: isolate"/>
  </g>
</svg>
