<svg xmlns="http://www.w3.org/2000/svg" xmlns:xlink="http://www.w3.org/1999/xlink" width="115" height="115" viewBox="0 0 115 115">
  <defs>
    <linearGradient id="linear-gradient" x1="0.807" y1="1.428" x2="0.114" y2="0.059" gradientUnits="objectBoundingBox">
      <stop offset="0" stop-color="#0740a5"/>
      <stop offset="0.489" stop-color="#00abe9"/>
      <stop offset="0.999" stop-color="#2affb4"/>
    </linearGradient>
  </defs>
  <g id="Groupe_110509" data-name="Groupe 110509" transform="translate(8 -87)">
    <circle id="Ellipse_220" data-name="Ellipse 220" cx="12.5" cy="12.5" r="12.5" transform="translate(37 132)"/>
    <g id="Groupe_110508" data-name="Groupe 110508" transform="translate(7 -5)">
      <circle id="Ellipse_219" data-name="Ellipse 219" cx="30.5" cy="30.5" r="30.5" transform="translate(12 119)" fill="#fff"/>
      <g id="Groupe_110505" data-name="Groupe 110505" transform="translate(25 135)">
        <g id="Groupe_1" data-name="Groupe 1" transform="translate(0 0)">
          <path id="Union_4" data-name="Union 4" d="M24.822,28.5h0l-.081-.185L17.493,11.884,10.15,28.5,3.828,14.165v0h0a14.006,14.006,0,0,0-.4,3.321c0,.069.006.14.006.209H.005c0-.069-.005-.14-.005-.209A17.378,17.378,0,0,1,1.843,9.668h0a17.5,17.5,0,0,1,31.288,0c.015.029.028.06.04.09a16.531,16.531,0,0,1,.729,1.688c.017.047.036.1.051.142.044.124.086.247.127.371.054.157.105.316.152.478.044.139.083.283.124.425l.037.142c.029.11.056.222.085.335s.051.215.074.323.044.2.063.293c.085.418.158.839.212,1.267l.028.23a17.1,17.1,0,0,1,.117,2.035c0,.069,0,.14-.005.209H31.534c0-.069.006-.14.006-.209,0-.276-.008-.552-.025-.827v-.024c-.006-.109-.012-.219-.024-.328-.012-.171-.031-.339-.051-.51-.047-.387-.11-.769-.186-1.146-.029-.131-.058-.261-.09-.391l0,0c-.006-.031-.016-.06-.022-.092h0v0L24.822,28.5Zm0-10.79,3.912-8.645v0a14.069,14.069,0,0,0-7.707-5.177L19.875,6.494l1.508,3.418Zm-14.672,0L15.114,6.492l-.008-.019h.017l1.328-3A13.988,13.988,0,0,0,8.662,6.548v.007A14.039,14.039,0,0,0,6.341,8.926l0,0-.026.033L6.3,8.974,6.282,9l-.01.013-.031.042v0Z" transform="translate(0)" stroke="rgba(0,0,0,0)" stroke-miterlimit="10" stroke-width="1" fill="url(#linear-gradient)"/>
        </g>
      </g>
    </g>
  </g>
</svg>
