<svg xmlns="http://www.w3.org/2000/svg" width="29.71" height="28.228" viewBox="0 0 29.71 28.228">
  <g id="Tracé_431" data-name="Tracé 431" transform="translate(3 3)" fill="none" stroke-linecap="round" stroke-linejoin="round">
    <path d="M11.855,0,23.71,11.855H20.746V22.228H14.819V14.819H8.891v7.409H2.964V11.855H0Z" stroke="none"/>
    <path d="M 11.85510158538818 -1.9073486328125e-06 L 1.9073486328125e-06 11.85509777069092 L 2.963771820068359 11.85509777069092 L 2.963771820068359 22.22831726074219 L 8.891321182250977 22.22831726074219 L 8.891321182250977 14.81887817382812 L 14.81888198852539 14.81887817382812 L 14.81888198852539 22.22831726074219 L 20.74643135070801 22.22831726074219 L 20.74643135070801 11.85509777069092 L 23.71020126342773 11.85509777069092 L 11.85510158538818 -1.9073486328125e-06 M 11.85510158538818 -3 C 12.62286949157715 -3 13.3906364440918 -2.707107543945312 13.97642135620117 -2.121322631835938 L 25.83152198791504 9.73377799987793 C 26.68951225280762 10.59176731109619 26.94618225097656 11.88212776184082 26.48184204101562 13.00314807891846 C 26.02212142944336 14.11301517486572 24.94534683227539 14.84051418304443 23.74643135070801 14.85487937927246 L 23.74643135070801 22.22831726074219 C 23.74643135070801 23.88516807556152 22.40328216552734 25.22831726074219 20.74643135070801 25.22831726074219 L 14.81888198852539 25.22831726074219 C 13.3211030960083 25.22831726074219 12.07966899871826 24.1306209564209 11.85510158538818 22.69587135314941 C 11.63053417205811 24.1306209564209 10.38910007476807 25.22831726074219 8.891321182250977 25.22831726074219 L 2.963771820068359 25.22831726074219 C 1.306921005249023 25.22831726074219 -0.03622817993164062 23.88516807556152 -0.03622817993164062 22.22831726074219 L -0.03622817993164062 14.85487937927246 C -1.235143661499023 14.84051418304443 -2.311918258666992 14.11301517486572 -2.771638870239258 13.00314807891846 C -3.235979080200195 11.88212776184082 -2.97930908203125 10.59176731109619 -2.121318817138672 9.73377799987793 L 9.733781814575195 -2.121322631835938 C 10.31956672668457 -2.707107543945312 11.08733367919922 -3 11.85510158538818 -3 Z" stroke="none" fill="#262627"/>
  </g>
</svg>
