<svg xmlns="http://www.w3.org/2000/svg" viewBox="0 0 750 500"><g id="freepik--background-complete--inject-24"><rect x="37.11" y="249.37" width="70.8" height="73.81" style="fill:#e0e0e0"></rect><rect x="32.31" y="249.37" width="70.8" height="73.81" style="fill:#f5f5f5"></rect><path d="M103.14,323.2H32.29V249.35h70.85Zm-70.8-.05h70.75V249.39H32.34Z" style="fill:#e0e0e0"></path><rect x="41.83" y="259.29" width="51.77" height="53.96" style="fill:#fff"></rect><path d="M41.83,313.61a8.17,8.17,0,0,1-1.28,1.49c-.82.87-2,2-3.29,3.34s-2.5,2.42-3.38,3.23a8.33,8.33,0,0,1-1.5,1.25,8.35,8.35,0,0,1,1.28-1.48c.82-.87,2-2.06,3.29-3.34s2.51-2.43,3.39-3.25A8.54,8.54,0,0,1,41.83,313.61Z" style="fill:#e0e0e0"></path><path d="M93.6,313.48a8.35,8.35,0,0,1,1.48,1.28c.88.83,2.06,2,3.34,3.29s2.42,2.5,3.24,3.38a7.49,7.49,0,0,1,1.24,1.5,9.49,9.49,0,0,1-1.48-1.27c-.87-.83-2-2-3.34-3.3s-2.43-2.51-3.24-3.39A8,8,0,0,1,93.6,313.48Z" style="fill:#e0e0e0"></path><path d="M93.46,259.44A8.32,8.32,0,0,1,94.73,258c.83-.87,2-2,3.29-3.33s2.5-2.43,3.39-3.24a9,9,0,0,1,1.49-1.25,7.51,7.51,0,0,1-1.27,1.48c-.83.87-2,2.06-3.3,3.34s-2.5,2.44-3.38,3.25A8.4,8.4,0,0,1,93.46,259.44Z" style="fill:#e0e0e0"></path><path d="M41.69,259.57a8.58,8.58,0,0,1-1.49-1.28c-.87-.82-2.05-2-3.33-3.29s-2.43-2.5-3.24-3.38a7.49,7.49,0,0,1-1.24-1.5,9.21,9.21,0,0,1,1.47,1.27c.88.83,2.06,2,3.35,3.3s2.43,2.51,3.24,3.39A8,8,0,0,1,41.69,259.57Z" style="fill:#e0e0e0"></path><path d="M93.46,313.26a1.67,1.67,0,0,1,0-.27c0-.18,0-.43,0-.75,0-.68,0-1.65,0-2.91,0-2.56,0-6.28,0-11,0-9.45-.06-22.92-.1-39l.2.2-51.62,0h0l.23-.23c0,19.81,0,38.34,0,54l-.2-.2,37.38.1,10.5,0,2.78,0h.72l.25,0h-.93l-2.74,0-10.45.05-37.51.1h-.2v-.19c0-15.63,0-34.16,0-54v-.23h.24l51.62,0h.2v.2c0,16.18-.08,29.69-.11,39.17,0,4.7,0,8.4,0,11,0,1.25,0,2.21,0,2.87,0,.32,0,.56,0,.74S93.46,313.26,93.46,313.26Z" style="fill:#e0e0e0"></path><rect x="59.08" y="277.64" width="17.27" height="17.27" style="fill:#ebebeb"></rect><rect x="634.65" y="66.92" width="90.43" height="131.08" style="fill:#e0e0e0"></rect><rect x="630.12" y="66.92" width="90.43" height="131.08" style="fill:#f5f5f5"></rect><rect x="641.36" y="81.11" width="67.96" height="102.69" style="fill:#fff"></rect><path d="M709.32,183.8s0-.17,0-.5,0-.82,0-1.46c0-1.29,0-3.18,0-5.63,0-4.92,0-12.09-.06-21.15,0-18.11-.07-43.75-.11-73.95l.22.23-68,0h0l.24-.25c0,38.74,0,74.46-.05,102.69l-.19-.19,49.47.1,13.66,0,3.59,0,1.24,0s-.4,0-1.2,0l-3.55,0-13.62,0-49.59.11h-.2v-.2c0-28.23,0-64,0-102.69v-.24h.26l68,0h.23v.22c0,30.26-.09,56-.11,74.1,0,9-.05,16.19-.06,21.1,0,2.43,0,4.3,0,5.58,0,.63,0,1.1,0,1.44S709.32,183.8,709.32,183.8Z" style="fill:#e0e0e0"></path><path d="M720.81,66.92a16.34,16.34,0,0,1-1.61,2.34c-1.05,1.4-2.54,3.31-4.24,5.38s-3.3,3.9-4.47,5.2a16.21,16.21,0,0,1-2,2,15.39,15.39,0,0,1,1.72-2.26l4.36-5.28L718.93,69A16.38,16.38,0,0,1,720.81,66.92Z" style="fill:#e0e0e0"></path><path d="M709.67,183.47a84.23,84.23,0,0,0,11.85,14.83" style="fill:#fff"></path><path d="M721.52,198.3a14.42,14.42,0,0,1-2.06-1.88,65.72,65.72,0,0,1-8.41-10.52,12.86,12.86,0,0,1-1.38-2.43,19.17,19.17,0,0,1,1.67,2.24c1,1.39,2.39,3.31,4,5.36s3.19,3.83,4.34,5.11A18.18,18.18,0,0,1,721.52,198.3Z" style="fill:#e0e0e0"></path><path d="M630.11,197.89,642,183.28" style="fill:#fff"></path><path d="M642,183.28a87.26,87.26,0,0,1-5.73,7.46,89.47,89.47,0,0,1-6.11,7.15,91.1,91.1,0,0,1,5.73-7.46A91.7,91.7,0,0,1,642,183.28Z" style="fill:#e0e0e0"></path><path d="M630.12,66.92a79.76,79.76,0,0,1,5.75,6.87A82.84,82.84,0,0,1,641.24,81a81,81,0,0,1-5.75-6.88A83.69,83.69,0,0,1,630.12,66.92Z" style="fill:#e0e0e0"></path><rect x="665.39" y="101.96" width="22.76" height="64.61" style="fill:#e0e0e0"></rect><rect x="31.4" y="79.94" width="96.6" height="140.02" style="fill:#e0e0e0"></rect><rect x="26.56" y="79.94" width="96.6" height="140.02" style="fill:#f5f5f5"></rect><rect x="38.57" y="95.1" width="72.6" height="109.69" style="fill:#fff"></rect><path d="M111.16,204.79s0-.19,0-.54,0-.88,0-1.55c0-1.38,0-3.4,0-6,0-5.26,0-12.92-.07-22.59,0-19.35-.07-46.74-.12-79l.24.24-72.58,0h0l.26-.26c0,41.38,0,79.53,0,109.69l-.21-.21,52.84.11,14.6.05,3.83,0c.87,0,1.32,0,1.32,0l-1.28,0-3.79,0-14.55,0-53,.11h-.21v-.21c0-30.16,0-68.31-.06-109.69v-.26h.28l72.58,0h.24v.24c0,32.32-.09,59.76-.11,79.14,0,9.66-.05,17.3-.07,22.54,0,2.6,0,4.61,0,6,0,.67,0,1.18,0,1.53S111.16,204.79,111.16,204.79Z" style="fill:#e0e0e0"></path><path d="M123.44,79.94a17.41,17.41,0,0,1-1.73,2.5c-1.12,1.5-2.71,3.54-4.53,5.75s-3.51,4.16-4.77,5.55a16.78,16.78,0,0,1-2.13,2.17,18.14,18.14,0,0,1,1.85-2.42l4.65-5.64,4.64-5.64A17.48,17.48,0,0,1,123.44,79.94Z" style="fill:#e0e0e0"></path><path d="M111.53,204.44a90.28,90.28,0,0,0,12.67,15.83" style="fill:#fff"></path><path d="M124.2,220.27a14.22,14.22,0,0,1-2.21-2A69.43,69.43,0,0,1,113,207a15.73,15.73,0,0,1-1.48-2.59,17.94,17.94,0,0,1,1.78,2.38c1.07,1.5,2.57,3.54,4.31,5.73s3.41,4.09,4.64,5.46A22.46,22.46,0,0,1,124.2,220.27Z" style="fill:#e0e0e0"></path><path d="M26.55,219.84q6.33-7.8,12.65-15.61" style="fill:#fff"></path><path d="M39.2,204.23a92.69,92.69,0,0,1-6.12,8,96.52,96.52,0,0,1-6.53,7.64,97.93,97.93,0,0,1,6.12-8A99.08,99.08,0,0,1,39.2,204.23Z" style="fill:#e0e0e0"></path><path d="M26.56,79.94a84.29,84.29,0,0,1,6.15,7.34A89.37,89.37,0,0,1,38.44,95a85.45,85.45,0,0,1-6.15-7.35A90.24,90.24,0,0,1,26.56,79.94Z" style="fill:#e0e0e0"></path><rect x="64.24" y="117.37" width="24.31" height="69.02" style="fill:#e0e0e0"></rect><rect x="541.74" y="48.86" width="8.86" height="44.11" transform="translate(-0.37 2.93) rotate(-0.31)" style="fill:#e0e0e0"></rect><rect x="464.89" y="49.01" width="22.96" height="24.35" transform="translate(-0.32 2.55) rotate(-0.31)" style="fill:#ebebeb"></rect><rect x="487.74" y="48.89" width="22.96" height="24.35" transform="translate(-0.32 2.67) rotate(-0.31)" style="fill:#f5f5f5"></rect><path d="M464.86,55.8q22.89.2,45.8-.21a.25.25,0,0,0,0-.49c-15.25-.08-30.55,0-45.8.28a.21.21,0,0,0,0,.42Z" style="fill:#e0e0e0"></path><rect x="450.56" y="73.01" width="41.71" height="19.85" transform="translate(-0.44 2.53) rotate(-0.31)" style="fill:#ebebeb"></rect><rect x="492.08" y="72.79" width="41.71" height="19.85" transform="translate(-0.44 2.75) rotate(-0.31)" style="fill:#f5f5f5"></rect><path d="M450.54,78.64c27.71.31,55.51,0,83.22-.41a.25.25,0,0,0,0-.49c-27.71-.14-55.52-.13-83.22.48a.21.21,0,0,0,0,.42Z" style="fill:#e0e0e0"></path><rect x="434.94" y="92.97" width="161.59" height="9.48" style="fill:#e0e0e0"></rect><rect x="461.4" y="96.38" width="6.56" height="12.13" style="fill:#e0e0e0"></rect><rect x="559.32" y="96.38" width="6.56" height="12.13" style="fill:#e0e0e0"></rect><rect x="550.44" y="32.41" width="8.86" height="60.67" transform="translate(-0.33 2.97) rotate(-0.31)" style="fill:#ebebeb"></rect><rect x="559.35" y="43.72" width="13.77" height="49.16" transform="translate(-0.36 3.04) rotate(-0.31)" style="fill:#f5f5f5"></rect><path d="M572.9,53.15a99,99,0,0,1-13.78,0,99,99,0,0,1,13.78,0Z" style="fill:#e0e0e0"></path><path d="M572.9,51.09a99,99,0,0,1-13.78,0,99,99,0,0,1,13.78,0Z" style="fill:#e0e0e0"></path><path d="M572.9,85.45a99,99,0,0,1-13.78,0,99,99,0,0,1,13.78,0Z" style="fill:#e0e0e0"></path><path d="M572.9,83.38a99,99,0,0,1-13.78,0,99,99,0,0,1,13.78,0Z" style="fill:#e0e0e0"></path><path d="M566.23,78.88c-.13,0-.24-5-.24-11.08s.11-11.08.24-11.08.24,5,.24,11.08S566.36,78.88,566.23,78.88Z" style="fill:#e0e0e0"></path><rect x="573.05" y="55.75" width="14.99" height="37.11" style="fill:#ebebeb"></rect><path d="M557.12,42.75a2.55,2.55,0,1,1-2.54-2.55A2.54,2.54,0,0,1,557.12,42.75Z" style="fill:#e0e0e0"></path><rect x="553.79" y="49.75" width="1.58" height="36.09" style="fill:#e0e0e0"></rect><rect x="234.58" y="72.63" width="48.65" height="12.87" style="fill:#f5f5f5"></rect><path d="M262.66,99.06a1.35,1.35,0,0,1,0-.24v-.66c0-.6,0-1.45,0-2.53,0-2.22,0-5.42-.08-9.44l.15.15L214,86.43l.25-.24h0V99.06l-.24-.25,34.67.11,10.23.07,2.77,0,.72,0,.26,0h-.23l-.69,0-2.71,0-10.18.07L214,99.3h-.25V86.19h0l.25-.25,48.65.09h.15v.16c0,4.06-.06,7.29-.08,9.53,0,1.07,0,1.9,0,2.5,0,.26,0,.47,0,.63A1.66,1.66,0,0,1,262.66,99.06Z" style="fill:#e0e0e0"></path><rect x="658.31" y="221.17" width="48.65" height="12.87" style="fill:#f5f5f5"></rect><path d="M686.39,247.6a1,1,0,0,1,0-.23v-.66c0-.61,0-1.45,0-2.54,0-2.22-.05-5.41-.08-9.44l.15.15-48.65.1c.11-.11-.25.24.24-.25h0V247.6l-.24-.24,34.67.11,10.23.07,2.77,0h.72l.26,0a.94.94,0,0,1-.23,0h-.69l-2.72,0-10.17.07-34.84.11h-.25V234.75h0l.25-.25,48.65.1h.15v.15c0,4.07-.06,7.29-.08,9.53,0,1.07,0,1.9,0,2.5,0,.26,0,.47,0,.64A1.23,1.23,0,0,1,686.39,247.6Z" style="fill:#e0e0e0"></path><path d="M387.34,58.46a2.07,2.07,0,0,1,0-.23l0-.66c0-.61,0-1.45,0-2.54,0-2.22,0-5.41-.08-9.44l.15.15-48.65.1.25-.25h0v6.52q0,3.23,0,6.33l-.24-.24,34.67.11,10.23.07,2.77,0,.73,0h.25s-.07,0-.22,0h-.7l-2.71,0-10.18.07-34.84.11h-.24v-.24c0-2.07,0-4.18,0-6.33V45.61h0l.25-.25,48.65.1h.15v.15c0,4.07-.06,7.29-.08,9.53,0,1.07,0,1.91,0,2.5v.64C387.35,58.4,387.35,58.47,387.34,58.46Z" style="fill:#e0e0e0"></path><path d="M393.94,45.59a1.35,1.35,0,0,1,0-.24c0-.19,0-.41,0-.69,0-.63,0-1.49,0-2.58,0-2.25-.06-5.44-.1-9.36l.18.18L364.71,33c-.22.22.3-.3.24-.25h0v6.61c0,2.15,0,4.24,0,6.24l-.23-.24,20.91.12,6.09.06,1.64,0,.59,0a3.28,3.28,0,0,1-.53,0l-1.6,0-6,.06-21.07.12h-.24v-.24c0-2,0-4.09,0-6.24V32.74h0l.25-.25,29.23.07h.18v.18c0,4-.08,7.19-.1,9.47,0,1.07,0,1.92,0,2.54S394,45.6,393.94,45.59Z" style="fill:#e0e0e0"></path><path d="M700.93,50.84a2.07,2.07,0,0,1,0-.23l0-.66c0-.61,0-1.45,0-2.53,0-2.22,0-5.42-.08-9.45l.15.15-48.65.1.25-.25h0v6.53q0,3.23,0,6.33l-.24-.24,34.67.11,10.23.07,2.77,0,.73,0h.25s-.07,0-.22,0l-.7,0-2.71,0L687.12,51l-34.84.11H652v-.25c0-2.07,0-4.18,0-6.33V38h0l.25-.24,48.65.09h.15V38c0,4.07-.06,7.29-.08,9.54,0,1.07,0,1.9,0,2.5v.63C700.94,50.78,700.94,50.85,700.93,50.84Z" style="fill:#e0e0e0"></path><path d="M147.63,56.2a1,1,0,0,1,0-.23v-.66c0-.61,0-1.45,0-2.53,0-2.23-.05-5.42-.08-9.45l.15.15L99,43.58l.25-.25h0V56.2L99,56l34.67.11,10.23.07,2.77,0,.72,0h.26s-.07,0-.23,0h-.69l-2.71,0-10.18.06L99,56.45h-.25V43.35h0c.5-.49.14-.14.25-.25l48.65.1h.15v.15c0,4.07-.06,7.29-.08,9.54,0,1.06,0,1.9,0,2.49V56C147.64,56.14,147.64,56.21,147.63,56.2Z" style="fill:#e0e0e0"></path></g><g id="freepik--Floor--inject-24"><path d="M712.81,459.13c0,.14-149.83.26-334.61.26s-334.63-.12-334.63-.26,149.79-.26,334.63-.26S712.81,459,712.81,459.13Z" style="fill:#263238"></path></g><g id="freepik--Device--inject-24"><path d="M591.9,454h-421a25.2,25.2,0,0,1-25.2-25.2V139.91a18.38,18.38,0,0,1,18.38-18.38H599.73A17.37,17.37,0,0,1,617.1,138.9V428.82A25.2,25.2,0,0,1,591.9,454Z" style="fill:#e0e0e0"></path><path d="M591.9,454l1-.07,1.27-.07c.5,0,1.08-.15,1.74-.24l1.06-.16,1.15-.3,1.26-.33,1.34-.5a23.54,23.54,0,0,0,2.93-1.31c.51-.25,1-.59,1.53-.9l.8-.49.77-.58a24.77,24.77,0,0,0,9.87-16c.07-.48.14-.95.22-1.43s.06-1,.09-1.47c.07-1,.08-2,.07-3q0-3.08,0-6.39,0-6.6,0-14.06c0-39.74,0-97.25-.09-168.31q0-26.64,0-55.77,0-14.53,0-29.66V141.51c0-1.27,0-2.57-.07-3.82a17.13,17.13,0,0,0-7.33-12.89,16.93,16.93,0,0,0-7.16-2.83c-.32,0-.64-.11-1-.14l-1,0c-.65,0-1.31,0-2,0H476.85l-305.66,0h-5.08c-.84,0-1.7,0-2.53,0l-1.24.06c-.42.05-.83.12-1.24.18a7.34,7.34,0,0,0-1.22.25c-.41.11-.81.2-1.21.32a18.57,18.57,0,0,0-2.31.93,17.4,17.4,0,0,0-4.15,2.72A17.65,17.65,0,0,0,149,130a19.08,19.08,0,0,0-2.12,4.47,18.79,18.79,0,0,0-.8,4.88c-.05,1.66,0,3.35,0,5V262.28c0,51.13,0,100.45,0,147.43v17.51c0,1.45.05,2.88.15,4.31l.32,2.12c.14.7.35,1.38.52,2.08a25.23,25.23,0,0,0,3.7,7.63,24.85,24.85,0,0,0,13.58,9.49c.68.16,1.34.39,2,.49l2.07.31c1.39.08,2.78.17,4.18.14h73.14l116.23,0,168.29.08L576,454l11.9,0,4,0-4,0-11.9,0-45.76.05-168.29.08-116.23,0H172.53c-1.39,0-2.81-.06-4.23-.14l-2.1-.32c-.71-.1-1.38-.33-2.08-.49a25.33,25.33,0,0,1-13.83-9.67,25.83,25.83,0,0,1-3.78-7.77c-.17-.71-.38-1.41-.52-2.12l-.33-2.16c-.1-1.45-.18-2.92-.15-4.36q0-8.7,0-17.51c0-47,0-96.3,0-147.43q0-38.35,0-78V144.4c0-1.68,0-3.34,0-5a19.37,19.37,0,0,1,.82-5,20.06,20.06,0,0,1,2.18-4.61,18.92,18.92,0,0,1,3.35-3.85,18.1,18.1,0,0,1,4.27-2.8,20.4,20.4,0,0,1,2.38-1c.41-.12.83-.21,1.25-.32a7.71,7.71,0,0,1,1.25-.26c.43-.06.85-.14,1.27-.19l1.29-.06c.86-.06,1.69,0,2.54,0h5.08l305.66,0H598.42c.66,0,1.32,0,2,0l1,.05c.33,0,.66.09,1,.14a17.17,17.17,0,0,1,7.33,2.91,17.55,17.55,0,0,1,7.52,13.21c.09,1.3,0,2.57.06,3.85v11.42q0,15.12,0,29.66,0,29.1,0,55.77c0,71.06-.06,128.57-.08,168.31q0,7.45,0,14.06c0,2.21,0,4.34,0,6.39,0,1,0,2-.07,3,0,.5,0,1-.1,1.48s-.15,1-.22,1.43a24.91,24.91,0,0,1-10,16.08l-.77.58-.8.49c-.54.31-1,.65-1.55.91a26.85,26.85,0,0,1-2.94,1.3l-1.35.49-1.27.32-1.15.29-1.06.16a17.31,17.31,0,0,1-1.75.23l-1.27.06Z" style="fill:#263238"></path><path d="M616.61,459.08H150.39A24.36,24.36,0,0,1,126,434.72v-3.79A.94.94,0,0,1,127,430h508.8a.94.94,0,0,1,.94.94V439A20.1,20.1,0,0,1,616.61,459.08Z" style="fill:#e0e0e0"></path><path d="M616.61,459.08l.68-.05a14.87,14.87,0,0,0,2-.18,19.08,19.08,0,0,0,7.5-2.65,19.34,19.34,0,0,0,4.55-3.71,20.2,20.2,0,0,0,3.78-6,20.82,20.82,0,0,0,1.46-8.11c0-1.49,0-3,0-4.6v-2.41c0-.41,0-.82-.27-1.07s-.69-.22-1.11-.23l-113.55.08-374.61.08H127a.78.78,0,0,0-.31.05.68.68,0,0,0-.38.45,4.65,4.65,0,0,0,0,.78v1.7c0,1.13,0,2.25.1,3.37a22.92,22.92,0,0,0,1.43,6.5,25.93,25.93,0,0,0,1.35,3A27.22,27.22,0,0,0,131,449,24.24,24.24,0,0,0,141.28,457a25.5,25.5,0,0,0,6.37,1.63c2.17.21,4.39.16,6.6.16H293l168.41.06L575,459l30.87,0,8,0,2.74,0-2.74,0-8,0-30.87.05-113.54.09L293,459.32l-99.46,0H154.25c-2.2,0-4.42,0-6.66-.17a25.74,25.74,0,0,1-6.51-1.66,24.77,24.77,0,0,1-10.53-8.25,26.76,26.76,0,0,1-1.84-2.86,29.72,29.72,0,0,1-1.38-3.11,23.71,23.71,0,0,1-1.46-6.65c-.07-1.14-.12-2.28-.1-3.41v-1.7a4.92,4.92,0,0,1,0-.91,1.22,1.22,0,0,1,1.2-.89h20.06l374.61.08,113.55.08h.63a1,1,0,0,1,.62.28,1,1,0,0,1,.31.59c0,.24,0,.42,0,.63,0,.81,0,1.62,0,2.41v4.6a20.94,20.94,0,0,1-1.5,8.17,20,20,0,0,1-3.83,6,20.06,20.06,0,0,1-12.14,6.33,14.18,14.18,0,0,1-2,.16Z" style="fill:#263238"></path><rect x="165.06" y="141.83" width="431.39" height="272.36" rx="5.25" style="fill:#455a64"></rect><path d="M591.21,414.19s.31,0,.9-.1a5.36,5.36,0,0,0,2.42-1.12,5.2,5.2,0,0,0,1.88-3.85q0-2.65,0-6.15c0-9.32,0-23.05,0-40.75,0-35.38-.05-86.58-.09-149.85q0-23.73,0-49.66,0-6.47,0-13.08V148a10.77,10.77,0,0,0-.06-1.62,5,5,0,0,0-1.39-2.82,5.08,5.08,0,0,0-2.8-1.44,9.88,9.88,0,0,0-1.64-.06h-29.1l-118.77,0-272.15,0a5,5,0,0,0-3.79,1.72,4.82,4.82,0,0,0-1,1.87,7,7,0,0,0-.2,2.16V279.75q0,34.14,0,67v60.32a9.44,9.44,0,0,0,.38,3.78,5,5,0,0,0,2.54,2.62,4.91,4.91,0,0,0,1.8.44c.62,0,1.29,0,1.94,0h111l103.49,0,149.85.08,40.74.05,10.59,0,3.61,0-3.61,0-10.59,0-40.74.05-149.85.08-103.49,0-57.65,0H172c-.66,0-1.29,0-2,0a5.64,5.64,0,0,1-2-.48,5.56,5.56,0,0,1-2.78-2.87,5.31,5.31,0,0,1-.42-2V346.77q0-32.85,0-67V210.31q0-17.64,0-35.52V147.84a7.66,7.66,0,0,1,.23-2.31,5.15,5.15,0,0,1,1.13-2.06,5.5,5.5,0,0,1,4.18-1.9l272.15,0,118.77,0h29.1a9.79,9.79,0,0,1,1.7.07,5.54,5.54,0,0,1,3,1.56,5.42,5.42,0,0,1,1.5,3.05,10.61,10.61,0,0,1,.06,1.68v14.73q0,25.9,0,49.66c0,63.27-.06,114.47-.08,149.85,0,17.7,0,31.43,0,40.75q0,3.5,0,6.15a5.27,5.27,0,0,1-1.93,3.89,5.2,5.2,0,0,1-2.44,1.11,4.13,4.13,0,0,1-.68.06Z" style="fill:#263238"></path><polygon points="334.95 429.43 341.29 440.18 430.46 440.18 436.35 429.43 334.95 429.43" style="fill:#263238"></polygon><path d="M384.91,132.61a3.54,3.54,0,1,1-3.54-3.54A3.54,3.54,0,0,1,384.91,132.61Z" style="fill:#263238"></path><rect x="312.68" y="275.39" width="137.09" height="23.68" rx="1.45" style="fill:#f5f5f5"></rect><rect x="312.81" y="307.92" width="137.09" height="23.68" rx="1.45" style="fill:#f5f5f5"></rect><path d="M322.07,287.08V284h.78V287c0,1.22.56,1.76,1.54,1.76s1.55-.54,1.55-1.76V284h.76v3.11a2.32,2.32,0,1,1-4.63,0Z" style="fill:#263238"></path><path d="M327.67,289l.31-.6a2.68,2.68,0,0,0,1.46.43c.69,0,1-.21,1-.56,0-.93-2.62-.12-2.62-1.77,0-.74.67-1.24,1.73-1.24a3.07,3.07,0,0,1,1.51.37l-.32.59a2.19,2.19,0,0,0-1.2-.32c-.65,0-1,.24-1,.57,0,1,2.62.18,2.62,1.79,0,.75-.69,1.22-1.79,1.22A3,3,0,0,1,327.67,289Z" style="fill:#263238"></path><path d="M335.84,287.61h-3.36a1.4,1.4,0,0,0,1.5,1.22,1.55,1.55,0,0,0,1.19-.5l.42.48a2.26,2.26,0,0,1-3.86-1.45,2,2,0,0,1,2.08-2.1,2,2,0,0,1,2,2.13A1.7,1.7,0,0,1,335.84,287.61Zm-3.36-.53h2.65a1.33,1.33,0,0,0-2.65,0Z" style="fill:#263238"></path><path d="M339.12,285.26V286H339a1.24,1.24,0,0,0-1.3,1.4v2.07h-.75v-4.15h.72v.7A1.57,1.57,0,0,1,339.12,285.26Z" style="fill:#263238"></path><path d="M344,287.05v2.39h-.75v-2.3c0-.81-.41-1.21-1.12-1.21a1.22,1.22,0,0,0-1.31,1.37v2.14h-.75v-4.15h.72v.63a1.76,1.76,0,0,1,1.49-.66A1.6,1.6,0,0,1,344,287.05Z" style="fill:#263238"></path><path d="M348.65,286.94v2.5h-.71v-.55a1.55,1.55,0,0,1-1.36.59c-.93,0-1.53-.5-1.53-1.22s.43-1.21,1.67-1.21h1.18v-.15c0-.63-.36-1-1.11-1a2.11,2.11,0,0,0-1.31.45l-.31-.56a2.72,2.72,0,0,1,1.71-.53C348,285.26,348.65,285.8,348.65,286.94Zm-.75,1.23v-.58h-1.15c-.74,0-1,.29-1,.64s.35.67.92.67A1.18,1.18,0,0,0,347.9,288.17Z" style="fill:#263238"></path><path d="M356.92,287.05v2.39h-.75v-2.3c0-.81-.39-1.21-1.07-1.21a1.2,1.2,0,0,0-1.24,1.37v2.14h-.75v-2.3c0-.81-.39-1.21-1.07-1.21a1.2,1.2,0,0,0-1.24,1.37v2.14h-.75v-4.15h.72v.62a1.66,1.66,0,0,1,1.43-.65,1.53,1.53,0,0,1,1.43.76,1.88,1.88,0,0,1,1.6-.76A1.58,1.58,0,0,1,356.92,287.05Z" style="fill:#263238"></path><path d="M362.06,287.61H358.7a1.41,1.41,0,0,0,1.5,1.22,1.58,1.58,0,0,0,1.2-.5l.41.48a2.26,2.26,0,0,1-3.86-1.45,2,2,0,0,1,2.08-2.1,2,2,0,0,1,2.05,2.13A1.8,1.8,0,0,1,362.06,287.61Zm-3.36-.53h2.66a1.34,1.34,0,0,0-2.66,0Z" style="fill:#263238"></path><rect x="313.03" y="344.6" width="137.09" height="23.68" rx="1.45" style="fill:#263238"></rect><path d="M369.19,353.88h1.55v4.25h2.62v1.23h-4.17Z" style="fill:#fff"></path><path d="M373.61,357.23a2.4,2.4,0,1,1,2.4,2.2A2.22,2.22,0,0,1,373.61,357.23Zm3.29,0a.89.89,0,0,0-.89-1,1,1,0,0,0,0,2A.89.89,0,0,0,376.9,357.23Z" style="fill:#fff"></path><path d="M383.65,355.11v3.47c0,1.61-.91,2.36-2.49,2.36a3.69,3.69,0,0,1-2.1-.55l.54-1a2.46,2.46,0,0,0,1.43.45c.8,0,1.13-.36,1.13-1v-.14a1.59,1.59,0,0,1-1.26.5,2.05,2.05,0,1,1,0-4.1,1.52,1.52,0,0,1,1.33.59v-.52Zm-1.47,2a.86.86,0,0,0-.92-.86.87.87,0,1,0,0,1.73A.86.86,0,0,0,382.18,357.08Z" style="fill:#fff"></path><path d="M387,353.88h1.55v5.48H387Z" style="fill:#fff"></path><path d="M394.05,356.93v2.43h-1.49v-2.19c0-.61-.27-.87-.7-.87s-.84.3-.84,1v2.06h-1.49v-4.25H391v.46a1.81,1.81,0,0,1,1.34-.53A1.66,1.66,0,0,1,394.05,356.93Z" style="fill:#fff"></path><path d="M323.49,319.9a2.06,2.06,0,1,1-2.06-2.06A2.06,2.06,0,0,1,323.49,319.9Z" style="fill:#263238"></path><path d="M330,319.9a2.06,2.06,0,1,1-2.06-2.06A2.06,2.06,0,0,1,330,319.9Z" style="fill:#263238"></path><path d="M336.45,319.9a2.06,2.06,0,1,1-2.06-2.06A2.06,2.06,0,0,1,336.45,319.9Z" style="fill:#263238"></path><path d="M342.93,319.9a2.06,2.06,0,1,1-2.06-2.06A2.06,2.06,0,0,1,342.93,319.9Z" style="fill:#263238"></path><path d="M349.42,319.9a2.07,2.07,0,1,1-2.07-2.06A2.07,2.07,0,0,1,349.42,319.9Z" style="fill:#263238"></path><path d="M355.9,319.9a2.07,2.07,0,1,1-2.06-2.06A2.06,2.06,0,0,1,355.9,319.9Z" style="fill:#263238"></path><path d="M362.38,319.9a2.06,2.06,0,1,1-2.06-2.06A2.06,2.06,0,0,1,362.38,319.9Z" style="fill:#263238"></path><path d="M368.86,319.9a2.06,2.06,0,1,1-2.06-2.06A2.06,2.06,0,0,1,368.86,319.9Z" style="fill:#263238"></path><path d="M439.22,318.4h-.54v-.76a2.56,2.56,0,0,0-5.11,0v.76h-.77a.94.94,0,0,0-.94.94v4.15a.94.94,0,0,0,.94.94h6.42a.94.94,0,0,0,.94-.94v-4.15A.94.94,0,0,0,439.22,318.4ZM437,323.08H435l.5-1.27a1.06,1.06,0,1,1,.92,0Zm.92-4.68h-3.55v-.76a1.78,1.78,0,0,1,3.55,0Z" style="fill:#e0e0e0"></path><circle cx="380.92" cy="211.56" r="35.74" transform="translate(111.68 554.16) rotate(-80.88)" style="fill:#fafafa"></circle><path d="M416.66,211.56s0-.19-.06-.57-.06-1-.11-1.7c0-.37-.05-.79-.07-1.25s-.15-.95-.23-1.49a24.91,24.91,0,0,0-.75-3.69,33.89,33.89,0,0,0-4-9.47,35.68,35.68,0,0,0-24-16.72,32.8,32.8,0,0,0-4.49-.52c-.76,0-1.53-.1-2.31-.09l-2.35.12c-.4,0-.79,0-1.19.08l-1.18.18c-.79.13-1.6.23-2.39.39a39.3,39.3,0,0,0-4.74,1.39,36.28,36.28,0,0,0-4.62,2c-.75.4-1.47.88-2.21,1.32a18.16,18.16,0,0,0-2.15,1.47,33,33,0,0,0-7.5,7.54,34.24,34.24,0,0,0-5.07,9.77,35.19,35.19,0,0,0,0,22.4l1,2.63,1.2,2.5a10.88,10.88,0,0,0,.66,1.21l.72,1.18.71,1.16.82,1.1a39.34,39.34,0,0,0,3.48,4.11,40.4,40.4,0,0,0,4,3.42,19,19,0,0,0,2.14,1.48c.75.44,1.47.92,2.21,1.32a37,37,0,0,0,4.63,2,39.3,39.3,0,0,0,4.74,1.39c.79.16,1.6.25,2.39.39l1.18.18c.4,0,.79,0,1.19.08l2.35.12c.78,0,1.55-.07,2.31-.09a33.13,33.13,0,0,0,4.5-.52,35.69,35.69,0,0,0,24-16.72,34.13,34.13,0,0,0,4-9.47,24.91,24.91,0,0,0,.75-3.69c.08-.54.18-1,.23-1.49s.05-.88.07-1.25c.05-.73.09-1.3.11-1.7s.06-.58.06-.58,0,.2,0,.58,0,1-.06,1.71c0,.37,0,.79-.05,1.25s-.14,1-.21,1.5a24.46,24.46,0,0,1-.7,3.71,33.75,33.75,0,0,1-3.91,9.58,35.87,35.87,0,0,1-24.17,17,32.32,32.32,0,0,1-4.55.54c-.78,0-1.56.11-2.34.1l-2.38-.12c-.4,0-.81,0-1.21-.07l-1.2-.18c-.8-.14-1.61-.23-2.42-.39a39.21,39.21,0,0,1-9.5-3.46c-.76-.41-1.49-.89-2.24-1.33a17.83,17.83,0,0,1-2.17-1.5,39.21,39.21,0,0,1-4.09-3.46,40.48,40.48,0,0,1-3.53-4.17l-.83-1.11-.73-1.18-.72-1.19a9.77,9.77,0,0,1-.67-1.23l-1.23-2.54c-.32-.89-.65-1.78-1-2.67a35.71,35.71,0,0,1,0-22.72,34.6,34.6,0,0,1,5.15-9.91,41.78,41.78,0,0,1,3.53-4.17,40.57,40.57,0,0,1,4.09-3.47,19,19,0,0,1,2.17-1.49c.75-.44,1.48-.92,2.24-1.33a39.21,39.21,0,0,1,9.5-3.46c.81-.16,1.62-.25,2.42-.39l1.2-.18c.4-.05.81-.05,1.2-.07l2.38-.12c.79,0,1.57.07,2.35.1a33.53,33.53,0,0,1,4.54.53,36,36,0,0,1,24.18,17,34.12,34.12,0,0,1,3.91,9.57,24.57,24.57,0,0,1,.7,3.72c.07.54.16,1,.21,1.5s0,.88.05,1.25c0,.74,0,1.3.06,1.71S416.66,211.56,416.66,211.56Z" style="fill:#263238"></path><path d="M384.47,212.09a8.18,8.18,0,1,0-6,0c-12.57,1.78-12,14.61-12,14.61l29.73.13S396.93,213.86,384.47,212.09Z" style="fill:#e0e0e0"></path><path d="M317.9,384.26h-4.29a1.23,1.23,0,0,1-1.23-1.23v-4.29a1.23,1.23,0,0,1,1.23-1.23h4.29a1.24,1.24,0,0,1,1.23,1.23V383A1.24,1.24,0,0,1,317.9,384.26ZM313.61,378a.73.73,0,0,0-.73.73V383a.73.73,0,0,0,.73.73h4.29a.73.73,0,0,0,.73-.73v-4.29a.73.73,0,0,0-.73-.73Z" style="fill:#263238"></path><path d="M326.11,383.34l-.89-1.27h-1.14v1.26h-.8V379h1.77c1.14,0,1.85.58,1.85,1.54a1.39,1.39,0,0,1-.92,1.37l1,1.42ZM325,379.69h-.94v1.73H325c.7,0,1.07-.32,1.07-.87S325.72,379.69,325,379.69Z" style="fill:#263238"></path><path d="M330.81,381.94h-2.59a1,1,0,0,0,1.07.79,1.17,1.17,0,0,0,.89-.36l.42.47a1.76,1.76,0,1,1-1.45-2.84,1.61,1.61,0,0,1,1.67,1.71C330.82,381.77,330.81,381.86,330.81,381.94Zm-2.6-.52h1.88a1,1,0,0,0-1.88,0Z" style="fill:#263238"></path><path d="M337.08,381.45v1.89h-.77v-1.79c0-.59-.27-.87-.74-.87s-.86.33-.86,1v1.68h-.77v-1.79c0-.59-.28-.87-.75-.87s-.85.33-.85,1v1.68h-.78V380h.74v.42a1.36,1.36,0,0,1,1.08-.46,1.24,1.24,0,0,1,1.11.55,1.55,1.55,0,0,1,1.24-.55A1.27,1.27,0,0,1,337.08,381.45Z" style="fill:#263238"></path><path d="M341.19,381.94H338.6a1,1,0,0,0,1.07.79,1.21,1.21,0,0,0,.9-.36l.41.47a1.65,1.65,0,0,1-1.33.54,1.68,1.68,0,0,1-1.82-1.69,1.64,1.64,0,0,1,1.7-1.69,1.61,1.61,0,0,1,1.67,1.71A1.93,1.93,0,0,1,341.19,381.94Zm-2.6-.52h1.88a.9.9,0,0,0-.94-.8A.92.92,0,0,0,338.59,381.42Z" style="fill:#263238"></path><path d="M347.46,381.45v1.89h-.77v-1.79c0-.59-.27-.87-.74-.87s-.86.33-.86,1v1.68h-.77v-1.79c0-.59-.27-.87-.74-.87s-.86.33-.86,1v1.68h-.78V380h.74v.42a1.36,1.36,0,0,1,1.08-.46,1.23,1.23,0,0,1,1.11.55,1.55,1.55,0,0,1,1.24-.55A1.27,1.27,0,0,1,347.46,381.45Z" style="fill:#263238"></path><path d="M352,381.69a1.61,1.61,0,0,1-1.68,1.69,1.34,1.34,0,0,1-1.09-.47v.43h-.74v-4.59h.78v1.69a1.34,1.34,0,0,1,1-.44A1.6,1.6,0,0,1,352,381.69Zm-.79,0a1,1,0,0,0-1-1,1,1,0,0,0,0,2.06A1,1,0,0,0,351.17,381.69Z" style="fill:#263238"></path><path d="M355.78,381.94h-2.59a1,1,0,0,0,1.07.79,1.21,1.21,0,0,0,.9-.36l.41.47a1.64,1.64,0,0,1-1.33.54,1.68,1.68,0,0,1-1.82-1.69,1.64,1.64,0,0,1,1.71-1.69,1.61,1.61,0,0,1,1.66,1.71A1.93,1.93,0,0,1,355.78,381.94Zm-2.59-.52h1.87a.95.95,0,0,0-1.87,0Z" style="fill:#263238"></path><path d="M358.45,380v.74a.62.62,0,0,0-.18,0,.9.9,0,0,0-1,1v1.6h-.77V380h.73v.48A1.3,1.3,0,0,1,358.45,380Z" style="fill:#263238"></path><path d="M366.36,381.45v1.89h-.78v-1.79c0-.59-.27-.87-.74-.87s-.86.33-.86,1v1.68h-.77v-1.79c0-.59-.27-.87-.74-.87s-.86.33-.86,1v1.68h-.77V380h.73v.42a1.36,1.36,0,0,1,1.08-.46,1.24,1.24,0,0,1,1.12.55A1.53,1.53,0,0,1,365,380,1.27,1.27,0,0,1,366.36,381.45Z" style="fill:#263238"></path><path d="M370.47,381.94h-2.59a1,1,0,0,0,1.07.79,1.17,1.17,0,0,0,.89-.36l.42.47a1.65,1.65,0,0,1-1.33.54,1.68,1.68,0,0,1-1.83-1.69,1.65,1.65,0,0,1,1.71-1.69,1.62,1.62,0,0,1,1.67,1.71C370.48,381.77,370.47,381.86,370.47,381.94Zm-2.6-.52h1.87a.89.89,0,0,0-.93-.8A.91.91,0,0,0,367.87,381.42Z" style="fill:#263238"></path><path d="M394,379.69V381h2.09v.68H394v1.66h-.8V379h3.16v.68Z" style="fill:#263238"></path><path d="M396.67,381.69a1.76,1.76,0,1,1,1.75,1.69A1.66,1.66,0,0,1,396.67,381.69Zm2.73,0a1,1,0,1,0-1,1A1,1,0,0,0,399.4,381.69Z" style="fill:#263238"></path><path d="M402.83,380v.74l-.18,0a.9.9,0,0,0-.95,1v1.6h-.78V380h.74v.48A1.3,1.3,0,0,1,402.83,380Z" style="fill:#263238"></path><path d="M406.73,380v2.8a1.55,1.55,0,0,1-1.78,1.74,2.6,2.6,0,0,1-1.6-.47l.34-.58a2,2,0,0,0,1.22.4c.73,0,1-.34,1-1v-.18a1.44,1.44,0,0,1-1.11.44,1.6,1.6,0,1,1,0-3.19,1.43,1.43,0,0,1,1.15.48V380Zm-.76,1.55a1,1,0,0,0-2,0,1,1,0,0,0,2,0Z" style="fill:#263238"></path><path d="M407.47,381.69a1.76,1.76,0,1,1,1.76,1.69A1.67,1.67,0,0,1,407.47,381.69Zm2.74,0a1,1,0,1,0-1,1A1,1,0,0,0,410.21,381.69Z" style="fill:#263238"></path><path d="M413.72,383.16a1.23,1.23,0,0,1-.75.22,1,1,0,0,1-1.13-1.11v-1.59h-.55v-.62h.55v-.75h.77v.75h.88v.62h-.88v1.57c0,.32.16.5.46.5a.71.71,0,0,0,.43-.14Z" style="fill:#263238"></path><path d="M419.75,380.55c0,.95-.7,1.54-1.84,1.54h-1v1.25h-.81V379h1.78C419.05,379,419.75,379.59,419.75,380.55Zm-.81,0c0-.54-.36-.86-1.06-.86h-.94v1.72h.94C418.58,381.41,418.94,381.1,418.94,380.55Z" style="fill:#263238"></path><path d="M423.22,381.4v1.94h-.73v-.4a1.19,1.19,0,0,1-1,.44c-.76,0-1.23-.41-1.23-1s.37-1,1.37-1h.85v-.05c0-.45-.27-.71-.82-.71a1.66,1.66,0,0,0-1,.32l-.3-.56a2.31,2.31,0,0,1,1.39-.41C422.67,380,423.22,380.45,423.22,381.4Zm-.78.91v-.39h-.79c-.53,0-.67.2-.67.44s.23.46.63.46A.83.83,0,0,0,422.44,382.31Z" style="fill:#263238"></path><path d="M423.83,383l.29-.59a2.16,2.16,0,0,0,1.15.33c.49,0,.7-.13.7-.36,0-.63-2,0-2-1.36,0-.62.56-1,1.45-1a2.57,2.57,0,0,1,1.23.29l-.29.58a1.86,1.86,0,0,0-.95-.24c-.47,0-.69.15-.69.37,0,.66,2,.07,2,1.36,0,.62-.57,1-1.5,1A2.58,2.58,0,0,1,423.83,383Z" style="fill:#263238"></path><path d="M427,383l.3-.59a2.13,2.13,0,0,0,1.15.33c.48,0,.69-.13.69-.36,0-.63-2,0-2-1.36,0-.62.56-1,1.45-1a2.64,2.64,0,0,1,1.24.29l-.3.58a1.86,1.86,0,0,0-.95-.24c-.46,0-.69.15-.69.37,0,.66,2,.07,2,1.36,0,.62-.57,1-1.49,1A2.64,2.64,0,0,1,427,383Z" style="fill:#263238"></path><path d="M435.66,380l-1.22,3.3h-.74l-.86-2.27-.86,2.27h-.74L430,380h.73l.87,2.43.91-2.43h.64l.89,2.45L435,380Z" style="fill:#263238"></path><path d="M435.82,381.69a1.76,1.76,0,1,1,1.76,1.69A1.66,1.66,0,0,1,435.82,381.69Zm2.74,0a1,1,0,1,0-1,1A1,1,0,0,0,438.56,381.69Z" style="fill:#263238"></path><path d="M442,380v.74l-.18,0a.9.9,0,0,0-1,1v1.6h-.77V380h.74v.48A1.3,1.3,0,0,1,442,380Z" style="fill:#263238"></path><path d="M445.85,378.75v4.59h-.74v-.43a1.36,1.36,0,0,1-1.1.47,1.69,1.69,0,0,1,0-3.38,1.31,1.31,0,0,1,1.06.45v-1.7Zm-.76,2.94a1,1,0,1,0-1,1A1,1,0,0,0,445.09,381.69Z" style="fill:#263238"></path><path d="M448.76,380.2c0-.35-.3-.58-.77-.58a1.15,1.15,0,0,0-1,.48l-.6-.39a2,2,0,0,1,1.67-.76c.91,0,1.52.42,1.52,1.13,0,1-1.06,1.1-1.06,1.83h-.78C447.73,381,448.76,380.82,448.76,380.2Zm-1.13,2.7a.49.49,0,0,1,1,0,.49.49,0,0,1-1,0Z" style="fill:#263238"></path><path d="M315.43,382.3a.36.36,0,0,1-.24-.09l-1-.8a.37.37,0,0,1,0-.52.37.37,0,0,1,.53-.06l.7.58,1.67-1.81a.37.37,0,0,1,.53,0,.38.38,0,0,1,0,.53l-1.91,2.08A.36.36,0,0,1,315.43,382.3Z" style="fill:#263238"></path><path d="M438.09,287.42a2.9,2.9,0,0,0,1.71-2.66,2.7,2.7,0,1,0-5.39,0,2.86,2.86,0,0,0,1.72,2.68c-4.15.62-4,5.13-4,5.13l9.8.05S442.2,288,438.09,287.42Z" style="fill:#e0e0e0"></path><path d="M363.19,256.21h2.3v6.31h3.88v1.82h-6.18Z" style="fill:#263238"></path><path d="M369.75,261.18a3.57,3.57,0,1,1,3.55,3.27A3.29,3.29,0,0,1,369.75,261.18Zm4.88,0a1.33,1.33,0,1,0-2.65,0,1.34,1.34,0,1,0,2.65,0Z" style="fill:#263238"></path><path d="M384.65,258.05v5.14c0,2.38-1.35,3.51-3.69,3.51a5.6,5.6,0,0,1-3.13-.82l.8-1.55a3.67,3.67,0,0,0,2.13.67c1.18,0,1.68-.53,1.68-1.52v-.21a2.35,2.35,0,0,1-1.87.75,3,3,0,1,1,0-6.08,2.28,2.28,0,0,1,2,.88v-.77ZM382.47,261a1.38,1.38,0,0,0-2.76,0,1.38,1.38,0,0,0,2.76,0Z" style="fill:#263238"></path><path d="M389.55,256.21h2.3v8.13h-2.3Z" style="fill:#263238"></path><path d="M400.08,260.74v3.6h-2.21V261.1c0-.9-.39-1.29-1-1.29s-1.25.45-1.25,1.49v3h-2.21v-6.29h2.1v.68a2.72,2.72,0,0,1,2-.79A2.47,2.47,0,0,1,400.08,260.74Z" style="fill:#263238"></path><path d="M572.15,166.08H555.62a1.18,1.18,0,0,1-1.18-1.18v-8.22a1.18,1.18,0,0,1,1.17-1.18h16.54a.29.29,0,0,1,.21.09.27.27,0,0,1,.09.21v2.71h1.77a.3.3,0,0,1,.3.3v4a.3.3,0,0,1-.3.3h-1.77v2.71A.3.3,0,0,1,572.15,166.08Zm-.31-10H555.61a.57.57,0,0,0-.57.58v8.22a.58.58,0,0,0,.58.58h16.22v-2.71a.3.3,0,0,1,.31-.3h1.76v-3.36h-1.76a.3.3,0,0,1-.31-.3Z" style="fill:#263238"></path><path d="M556.39,163.12v-4.66a1,1,0,0,1,1-1h7.77a1,1,0,0,1,1,1v4.66a1,1,0,0,1-1,1H557.4A1,1,0,0,1,556.39,163.12Z" style="fill:#263238"></path><rect x="484.3" y="412.2" width="86.22" height="7.38" style="fill:#263238"></rect><rect x="564.05" y="412.2" width="1.47" height="7.38" style="fill:#fff"></rect><rect x="560.96" y="412.2" width="1.47" height="7.38" style="fill:#fff"></rect><rect x="492.29" y="412.2" width="1.47" height="7.38" style="fill:#fff"></rect><rect x="489.2" y="412.2" width="1.47" height="7.38" style="fill:#fff"></rect><path d="M553,417.92s.1,0,.29,0a1.36,1.36,0,0,0,.71-.41,1.34,1.34,0,0,0,.31-.52,1.64,1.64,0,0,0,0-.74,1.31,1.31,0,0,0-.38-.76,1.42,1.42,0,0,0-.87-.4H541.19l-39.38,0a1.34,1.34,0,0,0-1.33,1.29,1.57,1.57,0,0,0,.1.68,1.35,1.35,0,0,0,1,.79,5.4,5.4,0,0,0,.7,0H536.7l11.94,0h0l-11.94,0L519,418H502.31a4.36,4.36,0,0,1-.72,0,1.44,1.44,0,0,1-1.12-.86,1.68,1.68,0,0,1-.12-.73,1.47,1.47,0,0,1,1.46-1.42l39.38,0,11.94,0a1.49,1.49,0,0,1,.9.42,1.43,1.43,0,0,1,.38.79,1.68,1.68,0,0,1-.06.75,1.32,1.32,0,0,1-.32.53,1.34,1.34,0,0,1-.73.4l-.22,0Z" style="fill:#fff"></path><rect x="488.52" y="419.5" width="80.05" height="10.57" style="fill:#455a64"></rect><rect x="488.52" y="420.8" width="80.05" height="7.5" style="fill:#ebebeb"></rect><path d="M567.88,421s-17.65.07-39.4.07-39.4,0-39.4-.07,17.64-.06,39.4-.06S567.88,421,567.88,421Z" style="fill:#263238"></path><path d="M567.88,423.25s-17.65.07-39.4.07-39.4,0-39.4-.07,17.64-.06,39.4-.06S567.88,423.22,567.88,423.25Z" style="fill:#263238"></path><path d="M567.88,425.49s-17.65.07-39.4.07-39.4,0-39.4-.07,17.64-.06,39.4-.06S567.88,425.45,567.88,425.49Z" style="fill:#263238"></path><path d="M567.88,427.73s-17.65.06-39.4.06-39.4,0-39.4-.06,17.64-.06,39.4-.06S567.88,427.69,567.88,427.73Z" style="fill:#263238"></path><rect x="492.32" y="390.51" width="10.97" height="20.79" transform="translate(995.62 801.81) rotate(180)" style="fill:#fafafa"></rect><rect x="503.3" y="389.78" width="58.88" height="22.55" transform="translate(1065.48 802.1) rotate(180)" style="fill:#263238"></rect><path d="M491.46,412.32h13.25v-1.46H491.46a.73.73,0,0,0-.73.73h0A.73.73,0,0,0,491.46,412.32Z" style="fill:#263238"></path><path d="M491.46,391.24h13.25v-1.46H491.46a.73.73,0,0,0-.73.73h0A.73.73,0,0,0,491.46,391.24Z" style="fill:#263238"></path><path d="M492.32,393.3s2.46.06,5.49.06,5.49,0,5.49-.06-2.46-.07-5.49-.07S492.32,393.26,492.32,393.3Z" style="fill:#e0e0e0"></path><path d="M492.32,396s2.46.07,5.49.07,5.49,0,5.49-.07-2.46-.06-5.49-.06S492.32,395.93,492.32,396Z" style="fill:#e0e0e0"></path><path d="M492.32,398.63s2.46.06,5.49.06,5.49,0,5.49-.06-2.46-.06-5.49-.06S492.32,398.6,492.32,398.63Z" style="fill:#e0e0e0"></path><path d="M492.32,401.3s2.46.06,5.49.06,5.49,0,5.49-.06-2.46-.06-5.49-.06S492.32,401.26,492.32,401.3Z" style="fill:#e0e0e0"></path><path d="M492.32,404s2.46.06,5.49.06,5.49,0,5.49-.06-2.46-.07-5.49-.07S492.32,403.93,492.32,404Z" style="fill:#e0e0e0"></path><path d="M492.32,406.63s2.46.06,5.49.06,5.49,0,5.49-.06-2.46-.06-5.49-.06S492.32,406.6,492.32,406.63Z" style="fill:#e0e0e0"></path><path d="M492.32,409.3s2.46.06,5.49.06,5.49,0,5.49-.06-2.46-.06-5.49-.06S492.32,409.26,492.32,409.3Z" style="fill:#e0e0e0"></path><rect x="511.77" y="399.14" width="43.09" height="3.81" style="fill:#fff"></rect></g></svg>