<svg xmlns="http://www.w3.org/2000/svg" width="36.288" height="36.288" viewBox="0 0 36.288 36.288">
  <g id="Layer_660" data-name="Layer 660" transform="translate(1 1)">
    <path id="Tracé_405" data-name="Tracé 405" d="M30.962,20.765h-3.39V18H24.807v2.765H21.693c-1.333,0-2.693.929-2.693,2.068v1.8H33.379V22.6C33.379,21.584,32.145,20.765,30.962,20.765Z" transform="translate(-9.046 -8.599)" fill="none" stroke="#262627" stroke-linecap="round" stroke-linejoin="round" stroke-width="2"/>
    <path id="Tracé_406" data-name="Tracé 406" d="M32.729,8.466l.277-3.373A3.971,3.971,0,0,0,29.168,1H26.336A3.971,3.971,0,0,0,22.5,5.092l.277,3.373" transform="translate(-10.608 -1)" fill="none" stroke="#262627" stroke-linecap="round" stroke-linejoin="round" stroke-width="2"/>
    <path id="Tracé_407" data-name="Tracé 407" d="M26.141,9.14C23.376,9.14,23,6.745,23,9.405v2.212a6.559,6.559,0,0,0,1.526,3.871,4.54,4.54,0,0,0,3.451,1.427,4.54,4.54,0,0,0,3.451-1.383,6.559,6.559,0,0,0,1.526-3.871V9.45C32.954,6.745,28.89,9.14,26.141,9.14Z" transform="translate(-10.833 -4.196)" fill="none" stroke="#262627" stroke-linecap="round" stroke-linejoin="round" stroke-width="2"/>
    <path id="Tracé_408" data-name="Tracé 408" d="M12.962,53.765H9.572V51H6.807v2.765H3.693C2.36,53.765,1,54.694,1,55.833v1.8H15.379V55.6C15.379,54.584,14.145,53.765,12.962,53.765Z" transform="translate(-1 -23.349)" fill="none" stroke="#262627" stroke-linecap="round" stroke-linejoin="round" stroke-width="2"/>
    <path id="Tracé_409" data-name="Tracé 409" d="M14.729,41.466l.277-3.373A3.971,3.971,0,0,0,11.168,34H8.336A3.971,3.971,0,0,0,4.5,38.092l.277,3.373" transform="translate(-2.563 -15.75)" fill="none" stroke="#262627" stroke-linecap="round" stroke-linejoin="round" stroke-width="2"/>
    <path id="Tracé_410" data-name="Tracé 410" d="M8.141,42.14C5.376,42.14,5,39.745,5,42.405v2.212a6.559,6.559,0,0,0,1.526,3.871,4.54,4.54,0,0,0,3.451,1.427,4.54,4.54,0,0,0,3.451-1.383,6.559,6.559,0,0,0,1.526-3.871V42.45C14.954,39.745,10.89,42.14,8.141,42.14Z" transform="translate(-2.788 -18.946)" fill="none" stroke="#262627" stroke-linecap="round" stroke-linejoin="round" stroke-width="2"/>
    <path id="Tracé_411" data-name="Tracé 411" d="M48.962,53.765h-3.39V51H42.807v2.765H39.693c-1.333,0-2.693.929-2.693,2.068v1.8H51.379V55.6C51.379,54.584,50.145,53.765,48.962,53.765Z" transform="translate(-17.091 -23.349)" fill="none" stroke="#262627" stroke-linecap="round" stroke-linejoin="round" stroke-width="2"/>
    <path id="Tracé_412" data-name="Tracé 412" d="M50.729,41.466l.277-3.373A3.971,3.971,0,0,0,47.168,34H44.336A3.971,3.971,0,0,0,40.5,38.092l.277,3.373" transform="translate(-18.654 -15.75)" fill="none" stroke="#262627" stroke-linecap="round" stroke-linejoin="round" stroke-width="2"/>
    <path id="Tracé_413" data-name="Tracé 413" d="M44.141,42.14c-2.765,0-3.141-2.395-3.141.265v2.212a6.559,6.559,0,0,0,1.526,3.871,4.941,4.941,0,0,0,6.9.044,6.559,6.559,0,0,0,1.526-3.871V42.45C50.954,39.745,46.89,42.14,44.141,42.14Z" transform="translate(-18.879 -18.946)" fill="none" stroke="#262627" stroke-linecap="round" stroke-linejoin="round" stroke-width="2"/>
    <line id="Ligne_43" data-name="Ligne 43" y2="4.569" transform="translate(17.144 18.058)" fill="none" stroke="#262627" stroke-linecap="round" stroke-linejoin="round" stroke-width="2"/>
    <path id="Tracé_414" data-name="Tracé 414" d="M27,44.765,29.765,42l2.765,2.765" transform="translate(-12.621 -19.326)" fill="none" stroke="#262627" stroke-linecap="round" stroke-linejoin="round" stroke-width="2"/>
  </g>
</svg>
