<svg xmlns="http://www.w3.org/2000/svg" width="37.288" height="37.288" viewBox="0 0 37.288 37.288">
  <g id="people" transform="translate(1.5 1.5)">
    <rect id="Rectangle_131" data-name="Rectangle 131" width="34.288" height="34.288" fill="none" stroke="#262627" stroke-width="3" opacity="0"/>
    <path id="Tracé_415" data-name="Tracé 415" d="M12.013,14.444A5.722,5.722,0,1,0,6.291,8.722,5.722,5.722,0,0,0,12.013,14.444ZM23.457,17.3a4.291,4.291,0,1,0-4.291-4.291A4.291,4.291,0,0,0,23.457,17.3Zm5.722,10.013a1.43,1.43,0,0,0,1.43-1.43,7.152,7.152,0,0,0-11.53-5.65A10.013,10.013,0,0,0,2,27.318a1.43,1.43,0,0,0,1.43,1.43H20.6a1.43,1.43,0,0,0,1.43-1.43" transform="translate(0.861 1.291)" fill="none" stroke="#262627" stroke-width="3"/>
  </g>
</svg>
