<svg xmlns="http://www.w3.org/2000/svg" width="80.663" height="56.306" viewBox="0 0 80.663 56.306">
  <path id="Tracé_439" data-name="Tracé 439" d="M70.51,43.2A2.011,2.011,0,0,1,68.5,45.213H9L21.632,57.885A1.992,1.992,0,1,1,18.816,60.7L2.725,44.61h0a1.448,1.448,0,0,1-.6-.644,1.891,1.891,0,0,1,0-1.529,1.448,1.448,0,0,1,.443-.644,1.448,1.448,0,0,1,.8-.6,1.649,1.649,0,0,1,.764,0H68.5A2.011,2.011,0,0,1,70.51,43.2ZM82.578,23.088a1.649,1.649,0,0,1,0,.764,2.132,2.132,0,0,1-1.086,1.086,1.649,1.649,0,0,1-.764,0H16.2a2.011,2.011,0,1,1,0-4.023H75.7L63.068,8.4a1.991,1.991,0,1,1,2.816-2.816L81.975,21.68h0a1.448,1.448,0,0,1,.443.644A1.649,1.649,0,0,1,82.578,23.088Z" transform="translate(-1.96 -5.005)" fill="#262627"/>
</svg>
