<svg xmlns="http://www.w3.org/2000/svg" width="36.287" height="36.287" viewBox="0 0 36.287 36.287">
  <path id="Union_2" data-name="Union 2" d="M19.909,34.287v-1.8c0-1.139,1.361-2.068,2.693-2.068h2.177a4.531,4.531,0,0,1-1.131-.874,6.557,6.557,0,0,1-1.524-3.827h0l-.276-3.373a3.97,3.97,0,0,1,3.838-4.092h2.831a3.971,3.971,0,0,1,3.839,4.092l-.277,3.373a6.549,6.549,0,0,1-1.526,3.871,4.536,4.536,0,0,1-1.088.83h2.41c1.184,0,2.417.818,2.417,1.836v2.035ZM0,34.287v-1.8c0-1.139,1.361-2.068,2.693-2.068H4.87a4.531,4.531,0,0,1-1.131-.874,6.557,6.557,0,0,1-1.524-3.827h0l-.276-3.373A3.97,3.97,0,0,1,5.773,18.25H8.6a3.971,3.971,0,0,1,3.839,4.092l-.277,3.373a6.549,6.549,0,0,1-1.526,3.871,4.536,4.536,0,0,1-1.088.83h2.41c1.183,0,2.417.818,2.417,1.836v2.035Zm14.378-8.848,2.766-2.766,2.765,2.766Zm2.766-7.382v0Zm-7.19-2.02v-1.8c0-1.139,1.361-2.069,2.694-2.069h2.176a4.547,4.547,0,0,1-1.131-.873,6.565,6.565,0,0,1-1.524-3.828h0L11.89,4.092A3.971,3.971,0,0,1,15.728,0H18.56A3.971,3.971,0,0,1,22.4,4.092l-.276,3.373a6.565,6.565,0,0,1-1.526,3.872,4.538,4.538,0,0,1-1.087.829h2.409c1.183,0,2.417.819,2.417,1.836v2.036Z" transform="translate(1 1)" fill="none" stroke="#262627" stroke-linecap="round" stroke-linejoin="round" stroke-width="2"/>
</svg>
