<svg xmlns="http://www.w3.org/2000/svg" width="51.872" height="52.358" viewBox="0 0 51.872 52.358">
  <path id="Union_3" data-name="Union 3" d="M36.257,50.858A3.258,3.258,0,0,1,33,47.6V40a3.258,3.258,0,0,1,3.257-3.257V34.571a5.429,5.429,0,0,1,10.859,0v2.172A3.258,3.258,0,0,1,50.372,40v7.6a3.258,3.258,0,0,1-3.257,3.258ZM35.171,40v7.6a1.086,1.086,0,0,0,1.085,1.086H47.115A1.086,1.086,0,0,0,48.2,47.6V40a1.085,1.085,0,0,0-1.085-1.085H36.257A1.085,1.085,0,0,0,35.171,40Zm3.257-5.429v2.172h6.515V34.571a3.258,3.258,0,0,0-6.515,0ZM40.6,45.429V43.92a1.634,1.634,0,1,1,2.172,0v1.509a1.086,1.086,0,0,1-2.172,0ZM0,20A20,20,0,1,1,20,40,19.994,19.994,0,0,1,0,20ZM8,27.96a14.4,14.4,0,0,0,24,0c-.06-3.97-8.01-6.16-12-6.16S8.05,23.99,8,27.96ZM14,12a6,6,0,1,0,6-6A6,6,0,0,0,14,12Z" transform="translate(0.75 0.75)" fill="none" stroke="#262627" stroke-width="1.5"/>
</svg>
